<svg width="798" height="330" viewBox="0 0 798 330" fill="none" xmlns="http://www.w3.org/2000/svg">
<path fill-rule="evenodd" clip-rule="evenodd" d="M80.8585 0.0906087C80.0335 0.375609 77.8644 1.74161 76.0384 3.12561C72.8544 5.53861 72.7455 5.84262 73.3885 10.5186C73.9585 14.6596 73.6974 15.9536 71.6584 19.0966C68.4954 23.9716 63.8585 34.8936 63.8585 37.4686C63.8585 38.5896 62.5025 41.5166 60.8455 43.9716C59.1895 46.4266 56.9025 51.2166 55.7655 54.6166C54.6275 58.0156 52.1575 62.7836 50.2775 65.2116C48.3975 67.6396 46.8585 70.4266 46.8585 71.4046C46.8585 72.3836 46.0294 73.7726 45.0174 74.4906C44.0044 75.2096 42.5844 76.9226 41.8614 78.2976C41.1384 79.6726 39.1044 82.5976 37.3404 84.7976C35.5764 86.9976 33.8394 90.0266 33.4814 91.5296C33.0934 93.1556 31.6214 94.8856 29.8444 95.8046C28.2014 96.6546 26.8585 97.8386 26.8585 98.4366C26.8585 99.0356 21.2544 105.088 14.4054 111.888C0.44945 125.744 -1.94056 129.904 1.25744 134.785C2.18644 136.202 3.37646 137.096 3.90246 136.771C4.42846 136.446 5.41345 136.523 6.09045 136.942C8.57745 138.478 11.4525 138.03 15.3585 135.497C17.5585 134.07 19.8085 132.411 20.3585 131.81C20.9085 131.21 23.6085 129.175 26.3585 127.288C29.1085 125.401 34.5395 121.481 38.4275 118.578C42.3155 115.674 45.8214 113.298 46.2184 113.298C46.6144 113.298 48.3075 114.31 49.9805 115.546C52.6455 117.517 54.0284 117.759 61.1894 117.51C65.6824 117.354 70.2194 117.13 71.2714 117.012C73.8414 116.724 74.5644 119.975 75.1634 134.503C75.4934 142.534 75.2795 146.707 74.4805 147.8C73.4775 149.173 69.6435 149.441 46.8375 149.737C19.0405 150.098 15.1674 150.652 12.5554 154.637C9.58644 159.17 9.66444 162.476 12.8744 168.048C14.5384 170.935 16.5135 173.298 17.2645 173.298C18.0155 173.298 19.9154 173.965 21.4864 174.78C23.7114 175.935 26.5555 176.13 34.3505 175.666C39.8555 175.338 45.0335 174.75 45.8585 174.359C47.7985 173.44 73.4655 173.574 74.4015 174.509C75.9115 176.016 74.6035 251.047 73.0155 254.008C72.1635 255.599 72.1085 257.422 72.8205 260.508C74.5015 267.796 74.2215 268.838 70.1085 270.606C68.0465 271.493 63.2085 272.507 59.3585 272.861C55.5085 273.214 50.9755 274.295 49.2865 275.262C46.0675 277.105 34.8125 277.366 26.5325 275.79C23.5495 275.222 21.7655 275.546 18.4285 277.262C9.21546 282 9.10746 291.095 18.1615 299.622C21.0205 302.314 24.3705 305.194 25.6085 306.022C26.8465 306.85 27.8585 308.36 27.8585 309.378C27.8585 310.395 28.7355 311.697 29.8075 312.271C30.8795 312.845 32.3425 314.487 33.0575 315.921C34.2955 318.403 40.0915 321.247 43.9845 321.283C46.6975 321.308 56.8565 316.41 56.8895 315.061C56.9395 313.052 60.8845 310.706 68.8895 307.922C72.9755 306.501 77.0034 304.47 77.8394 303.409C78.7634 302.234 81.7065 301.017 85.3585 300.297C88.6585 299.647 92.3554 298.481 93.5734 297.706C94.7914 296.932 96.5355 296.298 97.4495 296.298C98.3635 296.298 101.71 294.977 104.887 293.363C108.063 291.749 112.606 289.904 114.981 289.265C117.356 288.625 120.201 287.471 121.301 286.7C122.402 285.929 124.146 285.298 125.176 285.298C126.206 285.298 128.244 284.663 129.704 283.888C131.164 283.112 134.158 281.704 136.358 280.76C138.558 279.816 141.128 278.372 142.068 277.551C143.009 276.731 145.255 275.934 147.061 275.781C151.092 275.438 156.412 269.744 157.129 265.005C157.674 261.407 155.764 256.86 153.313 255.919C150.726 254.927 142.035 255.202 141.358 256.298C141.018 256.848 139.754 257.312 138.549 257.33C137.344 257.347 135.503 258.009 134.457 258.8C133.248 259.716 131.316 260.042 129.146 259.697C127.27 259.399 125.165 259.628 124.469 260.206C123.43 261.068 112.129 263.219 108.358 263.273C107.772 263.281 107.287 259.318 107.186 253.691L107.014 244.096L109.186 246.13C114.023 250.661 120.753 251.231 122.863 247.289C123.447 246.198 125.65 244.424 127.759 243.349C132.058 241.155 138.777 233.633 141.458 228.011C142.432 225.969 143.55 224.298 143.943 224.298C144.337 224.298 145.197 222.053 145.855 219.31C146.513 216.566 147.94 213.192 149.026 211.811C151.682 208.436 151.769 199.281 149.179 195.857C146.661 192.528 136.563 184.517 133.341 183.292C131.11 182.443 130.02 182.729 126.522 185.08C122.884 187.525 122.339 188.378 122.206 191.838C122.122 194.016 121.279 198.498 120.332 201.798C119.386 205.098 118.414 209.373 118.173 211.298C117.749 214.675 117.368 215.897 115.055 221.298C114.466 222.673 113.673 224.923 113.293 226.298C112.508 229.139 107.792 237.565 107.275 237.049C106.493 236.267 107.176 173.595 107.974 172.896C108.185 172.711 111.756 172.296 115.909 171.974C120.063 171.651 124.148 171.124 124.987 170.802C125.826 170.48 127.76 170.69 129.283 171.269C131.239 172.013 133.918 171.998 138.397 171.218C143.457 170.337 145.462 169.413 148.3 166.657C150.262 164.751 151.855 162.214 151.852 161C151.843 157.378 149.844 151.298 148.662 151.298C148.056 151.298 145.978 149.669 144.045 147.678C142.111 145.687 139.008 143.423 137.148 142.646C134.211 141.418 133.411 141.427 131.062 142.713C125.128 145.962 123.093 146.488 116.601 146.449C112.885 146.426 109.488 146.188 109.054 145.919C107.769 145.125 107.636 131.553 108.905 130.769C109.619 130.328 109.906 127.475 109.695 122.937L109.362 115.798L116.36 115.107C120.209 114.727 126.971 114.668 131.386 114.976C138.032 115.441 139.646 115.258 140.759 113.918C141.498 113.027 142.711 112.298 143.455 112.298C144.198 112.298 145.561 110.838 146.484 109.054C148.159 105.815 148.163 105.814 149.196 108.129C150.31 110.626 156.565 114.298 159.704 114.298C160.763 114.298 162.896 113.641 164.443 112.838C165.991 112.035 169.611 111.406 172.487 111.441C175.364 111.475 178.153 111.234 178.687 110.904C179.22 110.574 195.114 110.047 214.007 109.732C250.201 109.129 255.03 109.137 255.693 109.8C256.471 110.578 257.134 128.298 256.385 128.298C255.973 128.298 253.548 126.583 250.997 124.487C244.884 119.464 239.275 116.298 236.49 116.298C235.251 116.298 231.339 117.435 227.798 118.825C222.552 120.883 219.312 121.404 210.322 121.634C204.252 121.789 198.852 122.175 198.322 122.492C197.792 122.809 193.792 123.131 189.434 123.208C185.075 123.285 180.422 123.62 179.092 123.954C177.071 124.461 172.147 123.344 163.858 120.498C160.222 119.249 156.753 121.609 154.144 127.107C152.651 130.255 152.65 130.767 154.144 133.66C155.301 135.902 155.784 139.652 155.834 146.798C156.02 173.038 156.301 177.027 158.108 179.023C159.07 180.086 159.858 181.45 159.858 182.054C159.858 183.832 164.925 187.298 167.525 187.298C168.843 187.298 171.595 186.568 173.64 185.675C176.345 184.494 181.171 183.971 191.358 183.754C199.058 183.591 209.398 183.168 214.337 182.815C219.275 182.462 225.481 182.471 228.127 182.835C232.207 183.396 232.753 183.719 231.721 184.963C229.316 187.86 224.647 189.398 217.163 189.757C212.825 189.966 208.815 189.664 207.841 189.055C206.622 188.294 203.149 188.331 195.744 189.183C183.036 190.647 169.535 190.776 167.178 189.457C165.046 188.264 159.554 190.822 155.944 194.689C153.66 197.137 153.603 197.495 154.875 201.35C156.336 205.777 160.525 209.925 164.556 210.937C165.956 211.288 170.543 211.31 174.75 210.986C178.957 210.661 183.041 210.793 183.827 211.279C185.839 212.522 186.653 225.277 184.724 225.348C177.039 225.629 159.348 225.534 155.539 225.192C152.392 224.909 150.355 225.199 149.667 226.028C149.087 226.727 147.794 227.298 146.792 227.298C145.791 227.298 144.271 228.298 143.415 229.521C141.741 231.909 141.3 237.835 142.729 238.718C143.208 239.014 143.863 240.503 144.184 242.027C145.358 247.586 155.815 251.596 162.192 248.932C165.442 247.574 172.619 246.911 181.189 247.179L185.021 247.298L184.517 261.548C184.24 269.385 183.978 275.844 183.936 275.9C183.856 276.004 173.661 278.616 168.358 279.89C166.708 280.286 164.683 280.813 163.858 281.06C163.033 281.307 158.232 281.574 153.19 281.653C144.96 281.783 143.757 282.047 141.429 284.233C138.651 286.841 136.403 293.307 137.304 296.097C138.057 298.429 143.683 304.298 145.166 304.298C145.83 304.298 147.573 306.286 149.041 308.716C151.6 312.952 155.183 315.379 160.737 316.639C163.658 317.301 170.805 314.568 172.904 311.985C173.755 310.939 175.887 309.916 177.643 309.711C179.399 309.507 184.102 307.755 188.093 305.819C192.085 303.882 196.253 302.296 197.355 302.294C198.456 302.292 202.058 300.944 205.358 299.298C208.658 297.652 211.962 296.304 212.7 296.302C213.439 296.3 215.187 295.398 216.585 294.298C217.984 293.198 220.252 292.298 221.626 292.298C223.001 292.298 227.215 290.723 230.993 288.798C234.77 286.873 238.489 285.298 239.257 285.298C241.399 285.298 252.179 279.709 254.032 277.637C255.851 275.604 256.151 274.352 255.976 269.533C255.884 266.987 255.142 265.832 252.608 264.287C249.01 262.093 243.878 261.678 242.118 263.438C241.491 264.065 238.814 264.971 236.168 265.453C233.523 265.934 228.658 266.934 225.358 267.674C222.058 268.415 219.064 268.859 218.705 268.66C218.345 268.462 218.12 263.461 218.205 257.549L218.358 246.798L234.858 246.712C250.002 246.634 251.657 246.446 255.001 244.427C257.004 243.217 258.91 241.231 259.237 240.013C260.409 235.641 259.865 231.615 257.858 229.798C256.758 228.803 255.858 227.383 255.858 226.643C255.858 225.903 255.193 225.298 254.381 225.298C253.569 225.298 252.167 224.173 251.266 222.798C250.365 221.423 248.806 220.298 247.802 220.298C246.798 220.298 245.698 219.848 245.358 219.298C244.268 217.534 240.643 218.225 237.198 220.852C234.349 223.025 232.694 223.435 226.104 223.602C218.887 223.785 218.375 223.661 218.605 221.798C218.741 220.698 218.931 217.66 219.026 215.048C219.121 212.436 219.685 210.228 220.279 210.142C228.619 208.935 235.488 209.072 239.572 210.528C242.121 211.437 243.364 211.382 245.572 210.262C252.076 206.966 255.746 202.918 255.823 198.956C255.896 195.134 248.776 188.849 240.721 185.626C235.799 183.657 235.787 182.298 240.69 182.298C243.947 182.298 245.075 181.664 248.196 178.081C251.674 174.089 251.835 173.596 251.231 168.831C250.879 166.063 250.185 163.281 249.687 162.65C249.189 162.018 249.092 160.218 249.471 158.65C249.85 157.081 250.356 152.714 250.595 148.944C250.97 143.037 251.502 141.471 254.444 137.617L257.858 133.145V139.662C257.858 143.247 258.308 146.458 258.858 146.798C259.408 147.138 259.858 149.789 259.858 152.69C259.858 155.591 260.135 158.242 260.474 158.58C261.088 159.194 262.005 166.043 261.97 169.752C261.96 170.827 262.336 172.177 262.806 172.752C263.276 173.327 263.905 176.498 264.204 179.798C264.503 183.098 264.912 186.473 265.113 187.298C265.314 188.123 265.846 191.048 266.296 193.798C266.746 196.548 267.572 199.679 268.132 200.756C268.692 201.832 269.113 204.046 269.066 205.675C269.02 207.304 269.629 209.889 270.42 211.418C271.211 212.947 271.858 215.319 271.858 216.689C271.858 218.059 272.308 219.458 272.858 219.798C273.408 220.138 273.858 221.755 273.858 223.392C273.858 225.029 274.497 227.365 275.277 228.583C276.591 230.635 280.858 242.698 280.858 244.363C280.858 244.767 279.223 247.505 277.225 250.448C275.227 253.39 272.576 257.685 271.334 259.992C268.279 265.665 253.208 284.627 246.849 290.798C244.015 293.548 240.035 297.486 238.005 299.548C235.975 301.611 233.84 303.298 233.26 303.298C232.681 303.298 231.123 304.451 229.799 305.86C228.475 307.27 225.921 309.332 224.123 310.443C220.466 312.704 219.444 315.408 220.635 319.68C221.717 323.561 226.835 325.367 231.858 323.641C236.09 322.186 249.421 314.631 254.24 310.956C256.156 309.494 258.12 308.298 258.604 308.298C259.088 308.298 260.777 306.948 262.358 305.298C263.939 303.648 265.71 302.291 266.295 302.282C266.88 302.274 271.337 298.449 276.201 293.782C281.065 289.116 285.34 285.269 285.701 285.234C286.062 285.199 287.992 283.206 289.989 280.804L293.62 276.438L296.739 280.782C298.454 283.17 299.858 285.436 299.858 285.815C299.858 286.195 302.106 289.271 304.854 292.652C307.601 296.032 311.089 300.337 312.604 302.217C314.118 304.098 317.385 307.726 319.862 310.28C322.339 312.835 325.039 315.871 325.862 317.028C326.685 318.185 331.858 321.478 337.358 324.344C349.987 330.927 353.443 331.222 360.285 326.298C362.96 324.373 365.484 322.123 365.893 321.298C370.5 312.016 370.374 313.115 367.495 307.384C366.045 304.496 364.858 301.023 364.858 299.666C364.858 298.309 364.138 295.806 363.258 294.104C361.186 290.097 360.76 259.326 362.743 256.936C364.267 255.101 363.264 248.553 361.076 246.048C360.236 245.086 358.744 244.298 357.762 244.298C356.78 244.298 355.687 243.83 355.333 243.257C353.943 241.009 346.874 245.126 346.841 248.203C346.832 249.08 345.595 252.141 344.091 255.006C342.588 257.87 340.026 262.82 338.398 266.006C336.77 269.191 335.31 271.983 335.154 272.209C334.265 273.496 322.454 257.92 319.752 251.897C319.234 250.743 317.809 248.01 316.584 245.824L314.358 241.851L317.027 236.324C318.495 233.285 320.858 229.248 322.277 227.354C323.986 225.073 324.858 222.636 324.858 220.139C324.858 217.415 325.656 215.455 327.73 213.083C329.31 211.276 330.94 208.223 331.353 206.298C331.765 204.373 333.013 200.999 334.126 198.801C335.24 196.603 336.78 192.105 337.55 188.806C338.319 185.507 339.536 181.906 340.253 180.803C340.97 179.7 341.887 177.019 342.291 174.845C343.328 169.259 346.538 163.401 349.233 162.173C351.889 160.963 354.858 156.386 354.858 153.503C354.858 148.112 345.268 135.298 341.234 135.298C340.172 135.298 338.382 134.653 337.256 133.864C336.129 133.075 331.503 131.679 326.975 130.762C319.42 129.231 318.596 129.225 316.971 130.696C315.997 131.577 314.725 132.298 314.144 132.298C311.115 132.298 308.634 140.674 310.971 143.011C312.276 144.316 311.733 149.313 309.365 157.798C308.444 161.098 307.301 165.598 306.825 167.798C305.358 174.575 302.046 186.43 300.734 189.596L299.488 192.606L297.051 186.202C295.492 182.105 294.471 177.012 294.218 172.066C294 167.814 293.336 163.089 292.741 161.566C291.431 158.211 289.247 133.273 288.566 113.891C288.322 106.946 285.139 107.87 313.358 106.688C333.084 105.861 334.937 105.871 346.073 106.866C351.802 107.377 353.353 107.148 356.639 105.301C358.757 104.11 361.334 101.57 362.365 99.6546C364.027 96.5686 364.098 95.6436 362.992 91.5096C362.306 88.9446 361.39 86.6096 360.955 86.3216C360.521 86.0336 359.859 84.5446 359.484 83.0126C359.074 81.3366 357.81 79.8496 356.312 79.2806C354.943 78.7596 353.415 77.2616 352.917 75.9516C351.959 73.4326 350.506 72.5806 344.881 71.2366C341.939 70.5336 340.884 70.8026 338.017 72.9896C332.923 76.8756 317.153 79.5456 298.358 79.7046L287.358 79.7976L287.06 72.9576C286.894 69.1276 287.231 65.5536 287.827 64.8346C288.58 63.9276 288.57 62.0536 287.792 58.4236C287.094 55.1726 287.025 52.2966 287.602 50.5646C288.124 48.9996 288.153 45.9066 287.671 43.3246C287.208 40.8456 287.133 38.1376 287.506 37.3076C288.427 35.2526 289.993 23.7586 290.058 18.5656C290.115 14.0796 287.882 9.6176 285.05 8.5556C284.119 8.2066 282.908 7.40462 282.358 6.77362C280.776 4.95662 274.056 3.63561 265.1 3.37961C257.26 3.15561 256.69 3.28662 253.85 5.96762C250.408 9.21562 249.811 14.3576 252.439 18.1096C253.622 19.7986 253.914 22.0506 253.601 27.0556C253.371 30.7346 253.63 35.2016 254.176 36.9826C254.794 38.9956 254.827 41.4156 254.263 43.3816L253.356 46.5436L249.357 42.4216C247.158 40.1546 244.865 38.2986 244.262 38.2986C243.659 38.2976 241.777 37.6056 240.081 36.7586C237.219 35.3316 236.721 35.3676 233.192 37.2586C228.756 39.6366 220.327 40.1236 221.159 37.9546C222.487 34.4936 223.025 25.2046 221.971 23.9346C221.356 23.1926 220.681 21.2836 220.471 19.6916C220.261 18.0996 219.787 16.1226 219.418 15.2976C218.589 13.4416 212.249 9.29761 210.239 9.29761C209.425 9.29761 207.319 8.53361 205.558 7.59961C203.798 6.66561 201.233 5.75561 199.858 5.57761C198.483 5.39861 196.324 4.7256 195.06 4.0806C193.289 3.1776 191.689 3.19562 188.081 4.16062C182.915 5.54262 180.03 8.0456 178.91 12.1196C178.187 14.7486 179.461 19.2976 180.921 19.2976C182.295 19.2976 183.749 25.2426 184.431 33.6476C185.227 43.4546 185.408 43.2996 174.358 42.2936C163.186 41.2756 156.858 43.8426 156.858 49.3936C156.858 50.9256 156.408 52.4576 155.858 52.7976C155.308 53.1376 154.858 52.6806 154.858 51.7826C154.858 49.7646 144.072 38.2976 142.174 38.2976C141.416 38.2976 140.545 37.6446 140.238 36.8456C139.932 36.0476 138.033 34.8606 136.02 34.2076C134.006 33.5546 131.124 32.1546 129.615 31.0956C127.865 29.8676 124.428 28.9716 120.115 28.6186C116.399 28.3156 113.212 27.9356 113.034 27.7746C112.856 27.6146 113.461 26.0326 114.378 24.2596C115.813 21.4836 115.872 20.4186 114.8 16.5906C114.009 13.7646 112.609 11.5446 110.957 10.4956C109.527 9.58761 107.998 8.2726 107.558 7.5716C107.118 6.8706 106.254 6.29761 105.637 6.29761C105.02 6.29761 103.796 5.64659 102.918 4.85159C102.014 4.03359 98.4314 3.19462 94.6714 2.91962C91.0144 2.65262 86.7475 1.7896 85.1905 1.0026C83.6325 0.215596 81.6835 -0.194391 80.8585 0.0906087ZM528.598 4.8176C526.096 6.9946 523.858 11.0126 523.858 13.3276C523.858 13.8226 525.235 15.7966 526.918 17.7126L529.977 21.1976L530.401 37.6986C530.705 49.4916 530.497 54.4026 529.672 54.9126C529.038 55.3046 521.932 55.7136 513.882 55.8226C505.832 55.9306 498.371 56.4646 497.302 57.0096C496.062 57.6416 492.642 57.6786 487.858 57.1116C467.535 54.7066 460.382 55.7956 456.379 61.9056C454.829 64.2706 454.755 65.2586 455.78 69.8396C457.051 75.5206 458.213 76.8826 464.49 80.0546C468.161 81.9096 470.054 82.1076 481.49 81.8306C488.567 81.6596 496.048 81.1946 498.113 80.7966C502.95 79.8646 514.858 82.0376 514.858 83.8516C514.858 84.5816 514.443 85.4366 513.935 85.7496C513.427 86.0636 512.722 87.6406 512.368 89.2536C512.013 90.8666 510.203 94.1076 508.345 96.4556C506.487 98.8036 504.204 102.767 503.272 105.262C502.34 107.757 500.066 111.674 498.218 113.966C496.37 116.259 494.858 118.641 494.858 119.26C494.858 119.879 492.608 123.089 489.858 126.394C487.108 129.698 484.858 132.756 484.858 133.188C484.858 133.62 482.836 135.959 480.366 138.386C477.895 140.813 475.87 143.082 475.866 143.43C475.848 144.872 454.989 164.452 445.858 171.596C435.966 179.336 434.841 186.718 443.156 189.33C447.635 190.737 450.764 190.697 452.308 189.212C452.831 188.709 454.036 188.298 454.987 188.298C455.937 188.298 457.322 187.736 458.064 187.048C460.921 184.399 465.839 181.298 467.183 181.298C467.956 181.298 469.667 180.511 470.985 179.548C472.303 178.586 474.097 177.348 474.973 176.798C480.272 173.469 485.845 169.442 489.111 166.583C491.175 164.776 493.2 163.295 493.611 163.292C494.022 163.288 495.129 161.93 496.071 160.274C497.014 158.618 498.589 156.985 499.571 156.644C501.529 155.966 518.858 138.411 518.858 137.106C518.858 136.662 519.424 136.298 520.115 136.298C520.806 136.298 522.817 134.723 524.584 132.798C526.351 130.873 527.972 129.298 528.187 129.298C528.559 129.298 529.226 141.584 529.083 145.798C529.045 146.898 528.719 150.273 528.358 153.298C527.996 156.323 527.761 161.723 527.834 165.298C527.908 168.873 527.269 174.48 526.413 177.758C524.378 185.558 524.45 190.168 526.684 195.158C529.401 201.226 532.569 203.287 538.996 203.167C541.945 203.112 545.933 202.356 547.858 201.487C549.783 200.618 553.158 199.417 555.358 198.817C557.858 198.136 559.73 196.894 560.349 195.504C560.894 194.281 562.116 193.034 563.064 192.733C565.709 191.893 566.219 186.442 564.933 172.765C564.137 164.297 564.088 159.737 564.778 158.447C565.375 157.332 565.458 155.371 564.98 153.676C564.141 150.702 564.434 120.389 565.31 119.512C566.519 118.304 579.82 130.375 579.889 132.743C579.906 133.323 582.314 136.205 585.24 139.148C590.48 144.418 590.648 144.498 596.459 144.477C604.33 144.448 608.89 142.36 612.286 137.228C614.757 133.493 614.984 132.466 614.39 127.711C613.451 120.196 610.991 115.788 605.825 112.366C603.368 110.738 599.499 108.079 597.227 106.457C594.954 104.835 592.029 103.177 590.727 102.772C589.424 102.367 587.233 101.248 585.858 100.285C584.483 99.3216 580.883 98.2706 577.858 97.9496C574.833 97.6286 570.896 97.0746 569.108 96.7186L565.858 96.0706L565.873 89.4346C565.882 85.7836 566.219 82.3216 566.623 81.7406C567.633 80.2886 589.382 79.5606 605.449 80.4406C610.608 80.7226 612.106 80.3936 615.248 78.2856C617.52 76.7616 619.181 74.7246 619.536 73.0266C619.855 71.5026 620.508 70.0136 620.987 69.7176C622.236 68.9456 622.06 65.9096 620.608 63.1616C618.702 59.5566 613.695 54.2976 612.168 54.2976C611.42 54.2976 610.417 53.2666 609.937 52.0066C608.744 48.8686 607.025 47.6786 602.505 46.8636C599.372 46.2986 597.97 46.6176 595.005 48.5736C590.644 51.4486 578.208 54.0776 571.648 53.5096L566.938 53.1026L567.449 45.9496C567.731 42.0166 567.928 36.0166 567.887 32.6176C567.834 28.1636 568.379 25.4316 569.836 22.8366C570.948 20.8566 571.858 17.9266 571.858 16.3246C571.858 13.0396 568.265 6.3006 566.509 6.2916C565.876 6.2876 564.008 5.57362 562.358 4.70462C559.632 3.26862 549.855 2.78762 538.858 3.54862C537.483 3.64362 535.233 3.42761 533.858 3.06961C532.022 2.59061 530.625 3.0556 528.598 4.8176ZM742.859 9.6966C742.253 10.3026 741.443 10.8006 741.058 10.8036C739.321 10.8176 732.858 15.6066 732.858 16.8796C732.858 17.8466 731.586 18.3376 728.858 18.4226C726.658 18.4916 723.395 18.7096 721.608 18.9086C717.81 19.3306 703.275 19.8986 682.858 20.4246L668.358 20.7976L666.019 18.0476C664.733 16.5356 663.029 15.2976 662.234 15.2976C661.438 15.2976 659.633 14.5406 658.222 13.6166C656.211 12.2986 653.463 11.9586 645.519 12.0416C639.944 12.1006 634.877 11.7286 634.259 11.2156C632.715 9.93361 625.858 12.8936 625.858 14.8426C625.858 15.6776 625.183 16.6196 624.358 16.9356C621.823 17.9086 622.362 26.4826 625.12 29.0746C626.904 30.7506 627.447 32.5006 627.688 37.3606C627.856 40.7496 628.384 44.5506 628.862 45.8076C629.339 47.0636 629.54 48.2816 629.308 48.5136C629.076 48.7456 628.679 52.2376 628.426 56.2736C628.097 61.5066 628.358 64.1736 629.337 65.5706C630.392 67.0766 630.454 68.0916 629.605 69.9536C628.784 71.7566 628.822 73.6306 629.753 77.2656C630.63 80.6846 630.698 82.7276 629.983 84.0646C629.42 85.1156 628.925 88.4106 628.882 91.3866C628.839 94.3626 628.77 98.8226 628.729 101.298C628.688 103.773 628.774 107.148 628.918 108.798C629.063 110.448 628.885 115.128 628.522 119.197C628.114 123.759 628.252 127.068 628.881 127.826C629.575 128.662 629.569 129.927 628.863 131.784C628.293 133.285 627.824 136.153 627.822 138.156C627.801 158.519 627.109 168.12 625.346 172.512C623.546 176.996 623.536 177.401 625.156 180.796C626.092 182.759 626.858 184.848 626.858 185.438C626.858 187.244 631.825 192.533 635.241 194.363C640.983 197.441 653.722 194.311 660.435 188.173C662.404 186.374 664.127 186.297 693.435 186.701C710.443 186.935 725.258 187.356 726.358 187.636C727.458 187.916 729.631 188.179 731.187 188.221C733.747 188.291 733.959 188.562 733.409 191.067C733.025 192.814 733.353 194.568 734.297 195.817C735.121 196.907 735.809 198.539 735.826 199.444C735.908 203.681 746.472 209.35 748.417 206.202C748.79 205.599 750.505 205.317 752.227 205.576C754.297 205.887 756.262 205.408 758.024 204.164C759.49 203.129 762.078 202.004 763.774 201.665C765.47 201.326 766.858 200.654 766.858 200.173C766.858 199.692 767.294 199.298 767.827 199.298C768.359 199.298 768.554 199.927 768.258 200.697C767.428 202.861 769.292 203.383 771.735 201.671C773.073 200.735 773.731 199.474 773.411 198.463C773.121 197.547 773.553 195.509 774.371 193.934C776.168 190.472 776.272 180.663 774.797 153.478C774.057 139.837 774.063 133.208 774.815 130.927C775.546 128.714 775.57 126.05 774.891 122.471C774.107 118.336 774.23 116.272 775.482 112.586C776.724 108.927 776.834 107.16 775.993 104.354C774.868 100.598 775.176 76.1436 776.389 73.0446C776.766 72.0806 776.498 68.3956 775.794 64.8546C774.814 59.9236 774.789 58.0856 775.686 57.0046C776.485 56.0426 776.657 53.2186 776.227 48.1356C775.692 41.8096 775.92 39.9456 777.727 35.8606C780.332 29.9716 780.382 28.2486 778.029 25.1826C777.023 23.8706 775.911 22.0096 775.56 21.0476C775.208 20.0856 774.28 19.2976 773.496 19.2976C772.713 19.2976 771.813 18.6226 771.496 17.7976C771.18 16.9726 770.18 16.2976 769.276 16.2976C766.666 16.2976 760.064 12.1946 759.558 10.2586C759.168 8.76661 757.939 8.5046 751.529 8.5466C747.366 8.5736 743.465 9.0906 742.859 9.6966ZM83.2515 11.8796C84.0575 13.9786 84.0205 14.2976 82.9755 14.2976C82.4895 14.2976 81.8564 13.3976 81.5684 12.2976C80.9514 9.93561 82.3705 9.58361 83.2515 11.8796ZM300.688 15.0436C294.73 18.9986 294.293 23.0946 299.336 27.7136C304.541 32.4806 312.536 47.5596 314.945 57.1526C317.371 66.8126 329.042 74.0286 335.449 69.8296C336.735 68.9866 338.65 68.2976 339.704 68.2976C341.88 68.2976 345.956 63.3906 348.158 58.1226C350.235 53.1506 349.593 43.7826 346.927 40.1766C345.789 38.6376 344.858 36.8716 344.858 36.2516C344.858 34.9586 338.775 25.9786 337.533 25.4396C337.079 25.2426 335.188 23.5606 333.33 21.7026C331.374 19.7466 329.343 18.5576 328.506 18.8796C327.711 19.1846 326.763 18.9536 326.4 18.3656C326.037 17.7786 325.014 17.2976 324.128 17.2976C323.241 17.2976 321.805 16.6806 320.937 15.9256C318.451 13.7666 303.588 13.1186 300.688 15.0436ZM549.043 23.0586C549.766 23.9506 549.846 24.3746 549.221 24.0006C548.596 23.6256 547.529 23.9896 546.849 24.8086C545.199 26.7966 543.486 26.7086 544.266 24.6766C544.744 23.4306 544.422 23.1786 542.873 23.5836C540.994 24.0746 540.195 23.2936 541.373 22.1156C542.572 20.9176 547.831 21.5636 549.043 23.0586ZM760.501 23.7976C759.676 24.6226 758.689 25.2976 758.307 25.2976C757.925 25.2976 758.173 24.6226 758.858 23.7976C759.543 22.9726 760.53 22.2976 761.052 22.2976C761.574 22.2976 761.326 22.9726 760.501 23.7976ZM98.8585 29.2976C98.8585 29.8476 98.6604 30.2976 98.4174 30.2976C98.1744 30.2976 97.6985 29.8476 97.3585 29.2976C97.0185 28.7476 97.2175 28.2976 97.7995 28.2976C98.3815 28.2976 98.8585 28.7476 98.8585 29.2976ZM687.858 29.2976C687.858 29.8476 686.621 30.2526 685.108 30.1976L682.358 30.0986L684.858 29.2976C686.233 28.8576 687.47 28.4526 687.608 28.3976C687.746 28.3426 687.858 28.7476 687.858 29.2976ZM666.858 30.2976C666.858 30.8476 666.381 31.2976 665.799 31.2976C665.217 31.2976 665.018 30.8476 665.358 30.2976C665.698 29.7476 666.174 29.2976 666.417 29.2976C666.66 29.2976 666.858 29.7476 666.858 30.2976ZM563.587 31.9016C563.255 32.2336 562.392 32.2696 561.671 31.9806C560.873 31.6616 561.11 31.4246 562.275 31.3766C563.329 31.3336 563.919 31.5696 563.587 31.9016ZM652.858 32.2976C652.858 32.8476 652.66 33.2976 652.417 33.2976C652.174 33.2976 651.698 32.8476 651.358 32.2976C651.018 31.7476 651.217 31.2976 651.799 31.2976C652.381 31.2976 652.858 31.7476 652.858 32.2976ZM693.358 34.2976C693.018 34.8476 692.29 35.2976 691.74 35.2976C691.19 35.2976 691.018 34.8476 691.358 34.2976C691.698 33.7476 692.427 33.2976 692.977 33.2976C693.527 33.2976 693.698 33.7476 693.358 34.2976ZM201.186 39.8856C200.89 40.6556 200.215 41.0186 199.685 40.6906C199.155 40.3636 198.942 39.5206 199.212 38.8186C199.481 38.1156 199.174 36.9356 198.53 36.1956C197.885 35.4556 198.34 35.6686 199.541 36.6676C200.741 37.6676 201.481 39.1156 201.186 39.8856ZM648.982 38.5646C647.994 39.5446 647.88 39.4296 648.422 38.0046C648.798 37.0186 649.357 36.4636 649.665 36.7716C649.973 37.0786 649.666 37.8856 648.982 38.5646ZM659.574 37.9466C659.762 38.5106 658.309 39.0316 656.346 39.1056C654.103 39.1896 653.014 38.8536 653.418 38.2006C653.771 37.6286 654.69 37.4026 655.459 37.6976C656.229 37.9936 656.858 37.7616 656.858 37.1826C656.858 35.8946 659.101 36.5256 659.574 37.9466ZM664.858 39.6906C664.858 40.6396 661.865 41.1176 661.331 40.2536C661.006 39.7276 661.667 39.2976 662.799 39.2976C663.931 39.2976 664.858 39.4746 664.858 39.6906ZM209.085 42.1586C211.141 43.2066 212.368 44.4076 211.894 44.9086C211.431 45.3976 210.896 46.6386 210.705 47.6656C210.433 49.1326 209.646 48.5416 207.046 44.9156C203.389 39.8176 203.691 39.4086 209.085 42.1586ZM107.858 45.7976C110.645 48.2726 113.295 50.2976 113.746 50.2976C115.41 50.2976 122.568 61.9686 124.232 67.3956C125.342 71.0156 127.189 74.1946 129.46 76.3956C132.766 79.5986 133.364 79.7936 139.665 79.7256C148.137 79.6336 152.53 77.3276 155.564 71.3786C157.703 67.1846 157.973 61.3886 156.278 56.0476C155.272 52.8736 158.436 54.1586 159.928 57.5296C160.714 59.3076 162.928 61.8096 164.847 63.0906C168.026 65.2136 169.06 65.3666 176.511 64.8156C181.791 64.4246 184.916 64.5836 185.336 65.2626C185.694 65.8406 186.093 68.9026 186.224 72.0666C186.403 76.4056 187.123 78.7946 189.157 81.7876C191.844 85.7406 191.846 85.7576 189.731 86.5406C185.994 87.9226 163.214 87.8376 161.524 86.4346C159.008 84.3476 149.275 85.5576 146.33 88.3236C144.97 89.6016 143.858 91.2166 143.858 91.9126C143.858 94.5776 141.798 94.2396 138.148 90.9756C131.454 84.9896 128.347 84.1186 123.222 86.7916C121.647 87.6126 119.671 88.2876 118.831 88.2916C117.99 88.2946 116.407 88.9246 115.313 89.6916C113.635 90.8666 104.398 92.3566 100.108 92.1436C96.6965 91.9746 84.2555 92.3236 75.1085 92.8456C69.4715 93.1676 64.8585 93.1066 64.8585 92.7106C64.8585 92.3146 66.9955 89.6556 69.6085 86.8016C72.2215 83.9466 76.3514 78.3906 78.7884 74.4546C81.2244 70.5186 83.6124 67.2976 84.0944 67.2976C84.5764 67.2976 85.8805 65.2406 86.9925 62.7266C88.1045 60.2136 90.1045 56.5506 91.4365 54.5876C92.7685 52.6246 93.8585 50.3676 93.8585 49.5716C93.8585 47.8906 99.7815 41.6476 101.575 41.4396C102.244 41.3616 105.071 43.3226 107.858 45.7976ZM205.608 45.0476C206.221 46.8866 203.178 46.5736 202.468 44.7246C202.048 43.6286 202.369 43.2496 203.529 43.4746C204.444 43.6526 205.38 44.3606 205.608 45.0476ZM729.573 44.2836C733.943 44.2956 734.986 44.6626 736.015 46.5476C737.134 48.5996 737.771 63.7306 736.779 64.7006C735.5 65.9516 674.124 67.5086 668.823 66.4246L665.429 65.7306L665.37 56.7636C665.337 51.8326 665.619 47.1146 665.995 46.2796C666.583 44.9766 670.371 44.7726 692.831 44.8336C707.215 44.8726 719.232 44.5036 719.534 44.0136C719.837 43.5236 721.045 43.3816 722.221 43.6966C723.396 44.0126 726.705 44.2766 729.573 44.2836ZM197.858 48.4646C197.858 48.9226 197.435 49.2976 196.917 49.2976C196.399 49.2976 195.744 48.9226 195.461 48.4646C195.178 48.0056 195.601 47.6306 196.402 47.6306C197.203 47.6306 197.858 48.0056 197.858 48.4646ZM152.541 57.4856C152.222 58.2826 151.985 58.0456 151.937 56.8806C151.894 55.8266 152.13 55.2366 152.462 55.5686C152.794 55.9006 152.83 56.7636 152.541 57.4856ZM254.489 70.7456L254.78 83.1866L250.569 83.7316C248.253 84.0316 244.333 84.2846 241.858 84.2936C239.383 84.3026 231.283 84.5386 223.858 84.8166L210.358 85.3236L213.136 83.2066C217 80.2626 218.884 76.1616 219.678 68.9616L220.358 62.7976L232.858 62.7236C245.454 62.6496 249.312 61.8656 251.792 58.8776C252.535 57.9816 253.38 57.4866 253.67 57.7766C253.96 58.0666 254.329 63.9026 254.489 70.7456ZM270.858 70.7386C270.858 70.9816 270.408 71.4576 269.858 71.7976C269.308 72.1376 268.858 71.9386 268.858 71.3566C268.858 70.7746 269.308 70.2976 269.858 70.2976C270.408 70.2976 270.858 70.4956 270.858 70.7386ZM594.858 72.7386C594.858 72.9816 594.408 73.4576 593.858 73.7976C593.308 74.1376 592.858 73.9386 592.858 73.3566C592.858 72.7746 593.308 72.2976 593.858 72.2976C594.408 72.2976 594.858 72.4956 594.858 72.7386ZM712.858 78.2976C712.858 78.8476 712.66 79.2976 712.417 79.2976C712.174 79.2976 711.698 78.8476 711.358 78.2976C711.018 77.7476 711.217 77.2976 711.799 77.2976C712.381 77.2976 712.858 77.7476 712.858 78.2976ZM655.858 79.2976C655.858 79.8476 655.435 80.2976 654.917 80.2976C654.399 80.2976 653.698 79.8476 653.358 79.2976C653.018 78.7476 653.442 78.2976 654.299 78.2976C655.156 78.2976 655.858 78.7476 655.858 79.2976ZM59.5875 85.9016C59.2555 86.2336 58.3924 86.2696 57.6714 85.9806C56.8734 85.6616 57.1104 85.4246 58.2754 85.3766C59.3294 85.3336 59.9195 85.5696 59.5875 85.9016ZM716.675 90.4766C719.946 89.6626 723.296 89.5956 727.786 90.2536C731.321 90.7716 734.552 90.9866 734.967 90.7306C736.449 89.8146 737.087 92.5936 737.057 99.8336C737.021 108.624 736.436 110.834 734.109 110.977C733.146 111.036 724.713 111.392 715.37 111.766C706.027 112.141 697.854 112.886 697.209 113.422C696.564 113.957 695.796 114.007 695.504 113.534C695.211 113.06 690.333 112.766 684.665 112.881C678.996 112.997 672.068 112.859 669.268 112.576L664.179 112.06L664.612 101.929C664.849 96.3566 665.201 91.6366 665.392 91.4406C665.583 91.2436 671.953 91.0666 679.549 91.0476C687.144 91.0276 694.16 90.7226 695.139 90.3706C696.119 90.0186 700.312 90.1606 704.457 90.6856C709.793 91.3626 713.359 91.3016 716.675 90.4766ZM232.382 93.2226C232.02 94.3636 231.277 95.2976 230.732 95.2976C230.186 95.2976 229.922 94.9606 230.145 94.5476C230.367 94.1346 230.855 92.9456 231.227 91.9046C232.139 89.3586 233.217 90.5906 232.382 93.2226ZM313.315 91.2286C313.632 91.7406 313.433 92.4416 312.874 92.7876C312.315 93.1326 311.858 92.7136 311.858 91.8566C311.858 90.0996 312.458 89.8416 313.315 91.2286ZM545.97 97.5856C545.154 98.4016 544.858 98.2896 544.858 97.1646C544.858 95.1766 546.203 93.8316 546.7 95.3226C546.911 95.9556 546.582 96.9736 545.97 97.5856ZM553.358 95.2976C553.698 95.8476 553.248 96.2976 552.358 96.2976C551.468 96.2976 551.018 95.8476 551.358 95.2976C551.698 94.7476 552.148 94.2976 552.358 94.2976C552.568 94.2976 553.018 94.7476 553.358 95.2976ZM178.858 100.298C178.858 100.848 178.381 101.298 177.799 101.298C177.217 101.298 177.018 100.848 177.358 100.298C177.698 99.7476 178.174 99.2976 178.417 99.2976C178.66 99.2976 178.858 99.7476 178.858 100.298ZM558.417 103.88C560.193 105.327 560.202 105.412 558.526 104.88C557.519 104.56 556.281 104.298 555.776 104.298C555.271 104.298 554.858 103.848 554.858 103.298C554.858 101.85 556.194 102.068 558.417 103.88ZM759.858 103.298C759.858 103.848 759.381 104.298 758.799 104.298C758.217 104.298 758.018 103.848 758.358 103.298C758.698 102.748 759.174 102.298 759.417 102.298C759.66 102.298 759.858 102.748 759.858 103.298ZM547.858 104.298C547.858 104.848 547.435 105.298 546.917 105.298C546.399 105.298 545.698 104.848 545.358 104.298C545.018 103.748 545.442 103.298 546.299 103.298C547.156 103.298 547.858 103.748 547.858 104.298ZM42.8585 106.798C42.1735 107.623 41.1325 108.298 40.5445 108.298C39.9575 108.298 40.3494 107.637 41.4174 106.83C43.9254 104.932 44.4155 104.922 42.8585 106.798ZM550.167 109.607C549.86 110.104 549.244 109.922 548.799 109.203C548.354 108.483 548.242 107.486 548.549 106.989C548.856 106.492 549.472 106.674 549.917 107.393C550.362 108.113 550.474 109.11 550.167 109.607ZM100.285 108.819C101.345 109.621 101.871 110.619 101.453 111.036C101.036 111.453 100.158 111.061 99.5015 110.163C98.8455 109.266 97.4195 108.306 96.3335 108.031C94.3875 107.537 94.3885 107.529 96.3585 107.446C97.4585 107.399 99.2255 108.018 100.285 108.819ZM102.449 115.041C101.755 115.734 99.8585 114.325 99.8585 113.117C99.8585 112.453 100.432 112.529 101.382 113.318C102.22 114.014 102.7 114.789 102.449 115.041ZM513.986 114.048C515.255 115.667 515.208 115.688 513.358 114.331C512.258 113.524 511.171 112.737 510.941 112.581C510.712 112.425 510.995 112.298 511.569 112.298C512.143 112.298 513.231 113.086 513.986 114.048ZM544.858 114.298C544.858 114.848 544.381 115.298 543.799 115.298C543.217 115.298 543.018 114.848 543.358 114.298C543.698 113.748 544.174 113.298 544.417 113.298C544.66 113.298 544.858 113.748 544.858 114.298ZM554.858 115.739C554.858 115.982 554.408 116.458 553.858 116.798C553.308 117.138 552.858 116.939 552.858 116.357C552.858 115.775 553.308 115.298 553.858 115.298C554.408 115.298 554.858 115.496 554.858 115.739ZM275.22 119.798C274.611 121.384 272.858 121.879 272.858 120.465C272.858 119.407 273.951 118.298 274.993 118.298C275.434 118.298 275.536 118.973 275.22 119.798ZM272.858 127.857C272.858 128.714 272.408 129.138 271.858 128.798C271.308 128.458 270.858 127.757 270.858 127.239C270.858 126.721 271.308 126.298 271.858 126.298C272.408 126.298 272.858 127 272.858 127.857ZM640.858 127.739C640.858 127.982 640.408 128.458 639.858 128.798C639.308 129.138 638.858 128.939 638.858 128.357C638.858 127.775 639.308 127.298 639.858 127.298C640.408 127.298 640.858 127.496 640.858 127.739ZM766.289 130.201C766.026 130.464 765.034 129.868 764.084 128.877C762.435 127.155 762.456 127.133 764.563 128.398C765.775 129.127 766.552 129.938 766.289 130.201ZM547.858 129.298C547.858 129.848 547.408 130.298 546.858 130.298C546.308 130.298 545.858 129.848 545.858 129.298C545.858 128.748 546.308 128.298 546.858 128.298C547.408 128.298 547.858 128.748 547.858 129.298ZM558.858 129.298C558.858 129.848 558.408 130.298 557.858 130.298C557.308 130.298 556.858 129.848 556.858 129.298C556.858 128.748 557.308 128.298 557.858 128.298C558.408 128.298 558.858 128.748 558.858 129.298ZM767.858 133.239C767.858 133.757 767.408 134.458 766.858 134.798C766.308 135.138 765.858 134.714 765.858 133.857C765.858 133 766.308 132.298 766.858 132.298C767.408 132.298 767.858 132.721 767.858 133.239ZM193.058 135.498C192.416 136.14 191.559 136.333 191.154 135.927C190.748 135.521 191.065 134.788 191.858 134.298C192.651 133.808 193.508 133.615 193.762 133.869C194.017 134.123 193.7 134.856 193.058 135.498ZM761.838 134.822C761.142 135.66 760.313 136.086 759.994 135.768C759.676 135.45 760.079 134.771 760.888 134.259C763.005 132.92 763.281 133.084 761.838 134.822ZM93.1485 136.298C92.8605 137.398 92.4524 138.298 92.2414 138.298C92.0314 138.298 91.8585 137.398 91.8585 136.298C91.8585 135.198 92.2665 134.298 92.7645 134.298C93.2635 134.298 93.4355 135.198 93.1485 136.298ZM707.358 136.224C713.408 136.208 719.708 136.148 721.358 136.09C723.008 136.031 727.19 136.15 730.651 136.353L736.943 136.723L736.416 148.162C736.126 154.453 735.678 159.813 735.419 160.072C735.16 160.33 730.991 160.718 726.154 160.934C721.317 161.15 716.683 161.381 715.858 161.448C715.033 161.515 710.308 161.569 705.358 161.568C679.687 161.561 672.005 161.445 668.358 161.012L664.358 160.537V148.667C664.358 137.339 664.449 136.815 666.358 137.175C670.859 138.024 691.448 137.041 692.565 135.924C692.922 135.568 693.921 135.496 694.786 135.764C695.65 136.032 701.308 136.239 707.358 136.224ZM222.54 152.031C222.64 156.559 222.393 160.467 221.992 160.715C220.124 161.87 190.905 163.436 186.696 162.607C184.058 162.088 184.036 162.012 184.196 153.941L184.358 145.798L188.358 145.778C190.558 145.767 193.115 145.317 194.039 144.778C194.964 144.239 201.714 143.798 209.039 143.798H222.358L222.54 152.031ZM757.858 145.857C757.858 146.714 757.408 147.138 756.858 146.798C756.308 146.458 755.858 145.757 755.858 145.239C755.858 144.721 756.308 144.298 756.858 144.298C757.408 144.298 757.858 145 757.858 145.857ZM751.858 146.298C751.858 146.848 751.381 147.298 750.799 147.298C750.217 147.298 750.018 146.848 750.358 146.298C750.698 145.748 751.174 145.298 751.417 145.298C751.66 145.298 751.858 145.748 751.858 146.298ZM102.423 152.403C102.908 153.187 102.514 153.184 101.034 152.392C99.8994 151.785 98.6654 150.795 98.2934 150.193C97.8084 149.409 98.2025 149.412 99.6825 150.204C100.817 150.811 102.051 151.801 102.423 152.403ZM241.858 152.298C241.858 152.848 241.66 153.298 241.417 153.298C241.174 153.298 240.698 152.848 240.358 152.298C240.018 151.748 240.217 151.298 240.799 151.298C241.381 151.298 241.858 151.748 241.858 152.298ZM551.742 157.665C551.65 159.355 551.531 159.434 551.169 158.048C550.638 156.016 549.721 155.835 548.114 157.442C547.255 158.301 547.102 158.08 547.5 156.558C548.229 153.772 551.902 154.73 551.742 157.665ZM645.86 157.752C643.185 159.232 642.251 159.089 643.317 157.365C643.679 156.778 644.962 156.314 646.167 156.333C648.28 156.368 648.269 156.418 645.86 157.752ZM271.858 159.298C271.858 159.848 271.66 160.298 271.417 160.298C271.174 160.298 270.698 159.848 270.358 159.298C270.018 158.748 270.217 158.298 270.799 158.298C271.381 158.298 271.858 158.748 271.858 159.298ZM335.358 159.298C335.698 159.848 335.248 160.298 334.358 160.298C333.468 160.298 333.018 159.848 333.358 159.298C333.698 158.748 334.148 158.298 334.358 158.298C334.568 158.298 335.018 158.748 335.358 159.298ZM316.858 165.298C316.858 165.848 316.66 166.298 316.417 166.298C316.174 166.298 315.698 165.848 315.358 165.298C315.018 164.748 315.217 164.298 315.799 164.298C316.381 164.298 316.858 164.748 316.858 165.298ZM323.782 172.045C322.449 173.555 321.021 174.943 320.608 175.128C319.296 175.717 319.786 177.06 322.482 180.264C325.33 183.648 325.176 185.138 322.172 183.262C320.039 181.93 315.554 174.269 316.407 173.416C316.715 173.108 317.368 173.505 317.859 174.299C318.608 175.511 318.858 175.462 319.423 173.99C319.976 172.549 324.156 169.491 325.782 169.338C326.016 169.316 325.116 170.534 323.782 172.045ZM224.358 172.298C224.698 172.848 224.499 173.298 223.917 173.298C223.335 173.298 222.858 172.848 222.858 172.298C222.858 171.748 223.056 171.298 223.299 171.298C223.542 171.298 224.018 171.748 224.358 172.298ZM712.858 174.416C712.858 174.966 712.408 175.138 711.858 174.798C711.308 174.458 710.858 173.73 710.858 173.18C710.858 172.63 711.308 172.458 711.858 172.798C712.408 173.138 712.858 173.866 712.858 174.416ZM23.4925 190.413C21.4935 192.748 19.8585 195.199 19.8585 195.86C19.8585 196.522 21.5905 198.803 23.7085 200.93C26.5305 203.765 27.9065 206.266 28.8625 210.298C29.5805 213.323 30.5204 216.473 30.9524 217.298C31.7324 218.788 32.9655 223.424 33.3465 226.298C33.4555 227.123 34.2904 229.951 35.2014 232.583C36.1134 235.215 36.8585 238.197 36.8585 239.211C36.8585 240.224 37.5335 241.613 38.3585 242.298C39.2055 243.001 39.8585 245.181 39.8585 247.306C39.8585 252.431 41.9535 256.07 46.5225 258.878C51.3105 261.82 52.1814 261.836 56.1114 259.048C62.8844 254.243 65.8585 249.776 65.8585 244.407C65.8585 242.762 66.3085 241.138 66.8585 240.798C68.4595 239.809 68.0284 226.108 66.3264 223.857C65.5194 222.789 64.8585 220.906 64.8585 219.673C64.8585 217.119 60.1864 205.6 58.1854 203.219C57.4554 202.351 56.8585 201.339 56.8585 200.97C56.8585 199.36 48.9034 192.298 47.0904 192.298C45.9894 192.298 44.4005 191.247 43.5585 189.963C42.4315 188.243 41.0194 187.594 38.1934 187.496C36.0844 187.424 32.7315 187.095 30.7425 186.766C27.4195 186.216 26.8315 186.512 23.4925 190.413ZM276.758 189.377C278.01 191.07 278.838 192.652 278.598 192.892C278.031 193.458 272.858 188.293 272.858 187.162C272.858 185.421 274.539 186.376 276.758 189.377ZM286.315 197.229C287.055 198.426 285.174 199.611 283.842 198.788C282.723 198.097 283.458 196.298 284.858 196.298C285.343 196.298 285.999 196.717 286.315 197.229ZM290.315 198.229C290.632 198.741 290.433 199.442 289.874 199.788C289.315 200.133 288.858 199.714 288.858 198.857C288.858 197.1 289.458 196.842 290.315 198.229ZM220.858 199.298C220.858 199.848 220.381 200.298 219.799 200.298C219.217 200.298 219.018 199.848 219.358 199.298C219.698 198.748 220.174 198.298 220.417 198.298C220.66 198.298 220.858 198.748 220.858 199.298ZM601.533 201.617C599.603 203.241 598.54 205.25 598.176 207.966C597.702 211.498 597.98 212.209 600.681 214.369C603.339 216.493 608.281 220.086 611.36 222.132C611.911 222.498 615 226.061 618.224 230.048C621.447 234.035 624.415 237.298 624.819 237.298C625.223 237.298 627.27 240.785 629.367 245.048C633.706 253.866 637.513 259.298 639.354 259.298C640.047 259.298 641.173 259.973 641.858 260.798C642.698 261.81 644.955 262.298 648.793 262.298C659.18 262.298 666.368 256.934 669.246 247.037C671.98 237.63 669.318 229.442 660.958 221.548C657.901 218.66 655.068 216.298 654.663 216.298C654.259 216.298 652.449 215.012 650.643 213.441C648.836 211.869 645.716 210.282 643.709 209.914C641.703 209.546 638.932 208.357 637.552 207.272C636.172 206.186 634.267 205.298 633.318 205.298C632.37 205.298 630.065 204.353 628.195 203.197C625.99 201.835 623.95 201.309 622.388 201.701C621.064 202.033 619.719 201.882 619.4 201.365C619.08 200.848 618.04 200.407 617.088 200.385C616.137 200.363 612.883 200.097 609.858 199.794C605.07 199.314 603.992 199.55 601.533 201.617ZM539.937 209.337C535.296 213.931 534.825 216.716 538.005 220.758C540.025 223.326 540.115 224.211 539.519 235.643C539.156 242.621 539.281 248.423 539.815 249.264C540.401 250.19 540.361 251.192 539.706 251.981C539.058 252.762 538.724 260.283 538.818 272.015C539.022 297.552 539.516 302.102 542.464 305.606C543.781 307.171 544.858 309.092 544.858 309.875C544.858 310.658 545.27 311.298 545.773 311.298C546.277 311.298 547.963 312.648 549.52 314.298C551.077 315.948 553.08 317.298 553.97 317.298C554.86 317.298 556.787 318.241 558.252 319.394C560.291 320.997 563.126 321.678 570.323 322.295C575.497 322.738 580.299 323.452 580.994 323.882C581.689 324.312 588.805 324.859 596.808 325.098C622.541 325.868 623.831 325.937 624.479 326.586C624.83 326.937 626.972 326.993 629.238 326.711C631.504 326.429 643.933 326.044 656.858 325.856C669.783 325.668 681.708 325.226 683.358 324.874C685.008 324.521 693.479 323.86 702.182 323.405C719.852 322.482 722.738 321.429 723.958 315.463C724.313 313.729 725.154 311.648 725.826 310.838C726.94 309.495 726.892 305.728 725.634 295.572C725.482 294.348 723.83 291.95 721.961 290.243C717.217 285.911 713.858 280.678 713.858 277.617C713.858 276.191 713.34 271.129 712.706 266.368L711.553 257.711L706.706 255.005C704.04 253.516 701.286 252.298 700.586 252.298C699.887 252.298 697.727 253.606 695.787 255.205C692.89 257.593 692.215 258.87 692.01 262.35C691.872 264.68 691.108 267.85 690.31 269.393C689.512 270.936 688.858 272.946 688.858 273.86C688.858 276.164 681.238 285.048 678.558 285.869C677.348 286.24 675.728 287.05 674.958 287.67C673.414 288.914 659.012 291.242 648.858 291.888C635.326 292.75 619.665 292.794 619.157 291.973C618.867 291.503 617.218 291.374 615.493 291.686C611.274 292.449 589.157 289.845 585.173 288.116C583.422 287.356 581.048 285.539 579.9 284.078C577.963 281.616 577.815 280.197 577.872 264.61C577.98 234.74 578.214 230.93 580.123 228.017C581.54 225.854 581.7 224.551 580.958 221.247C580.016 217.054 577.41 213.298 575.444 213.298C574.836 213.298 573.821 212.468 573.187 211.453C571.856 209.322 563.823 207.488 553.618 206.984C549.911 206.801 546.574 206.347 546.202 205.975C544.982 204.756 544.069 205.246 539.937 209.337ZM710.898 215.354C708.995 216.398 706.912 218.275 706.268 219.525C705.035 221.92 705.502 228.298 706.911 228.298C707.365 228.298 709.816 230.098 712.358 232.298C714.9 234.498 717.29 236.308 717.669 236.321C718.866 236.36 728.538 245.594 732.833 250.798C739.412 258.771 740.732 260.474 744.844 266.298C746.98 269.323 749.542 272.923 750.537 274.298C751.532 275.673 752.378 277.023 752.417 277.298C753.004 281.472 755.532 286.148 757.952 287.537C759.55 288.454 760.858 289.831 760.858 290.597C760.858 293.274 764.42 295.112 771.931 296.309L779.503 297.515L785.297 294.246C790.497 291.311 791.437 290.252 794.474 283.915C798.525 275.463 798.673 272.314 795.318 266.01C793.92 263.385 793.012 260.858 793.299 260.393C793.587 259.928 792.437 257.637 790.745 255.301C786.584 249.556 772.012 235.298 770.303 235.298C769.546 235.298 767.449 234.009 765.643 232.433C763.836 230.857 761.233 229.223 759.858 228.802C758.483 228.38 756.233 227.266 754.858 226.325C751.464 224.003 745.816 221.298 744.359 221.298C743.704 221.298 742.353 220.398 741.358 219.298C740.179 217.995 738.279 217.298 735.904 217.298C733.899 217.298 731.831 216.892 731.308 216.395C730.786 215.898 728.333 215.244 725.858 214.941C723.383 214.638 719.783 214.18 717.858 213.924C715.562 213.617 713.167 214.11 710.898 215.354ZM291.399 215.365C292.411 217.002 291.603 217.091 288.858 215.645C286.46 214.381 286.448 214.327 288.549 214.313C289.754 214.305 291.037 214.778 291.399 215.365ZM500.4 215.027C495.091 216.376 491.023 221.998 492.174 226.398C492.764 228.656 491.886 231.219 489.093 235.388C482.921 244.604 481.858 246.4 481.858 247.619C481.858 249.119 471.437 263.054 464.668 270.606C462.297 273.25 458.22 276.813 455.608 278.524C452.996 280.235 450.81 282.122 450.751 282.716C449.94 290.899 450.244 296.125 451.67 298.548C452.561 300.061 453.812 301.298 454.451 301.298C455.09 301.298 456.185 301.987 456.884 302.83C457.68 303.788 459.528 304.28 461.824 304.145C463.963 304.019 466.495 304.631 467.898 305.613C469.221 306.54 471.498 307.298 472.958 307.298C478.889 307.298 488.988 301.035 494.322 294.049C496.282 291.482 498.499 289.026 499.25 288.59C501.147 287.489 505.858 280.333 505.858 278.553C505.858 277.746 506.983 275.75 508.358 274.115C509.733 272.481 511.151 269.941 511.507 268.471C511.864 267.001 512.764 264.91 513.507 263.825C514.25 262.741 514.858 261.002 514.858 259.962C514.858 258.921 515.698 256.434 516.726 254.434C519.794 248.459 522.026 237.869 520.861 234.807C520.309 233.355 519.858 231.037 519.858 229.656C519.858 227.079 517.185 223.92 509.75 217.708C505.773 214.385 504.437 214.002 500.4 215.027ZM99.5514 221.029C99.2974 222.002 99.0735 221.448 99.0535 219.798C99.0335 218.148 99.2405 217.352 99.5145 218.029C99.7885 218.706 99.8054 220.056 99.5514 221.029ZM560.858 227.298C560.858 227.848 560.381 228.298 559.799 228.298C559.217 228.298 559.018 227.848 559.358 227.298C559.698 226.748 560.174 226.298 560.417 226.298C560.66 226.298 560.858 226.748 560.858 227.298ZM97.8585 228.739C97.8585 229.532 97.4085 230.458 96.8585 230.798C96.3085 231.138 95.8585 231.201 95.8585 230.939C95.8585 230.676 95.5855 229.75 95.2515 228.88C94.8535 227.842 95.1965 227.298 96.2515 227.298C97.1355 227.298 97.8585 227.946 97.8585 228.739ZM749.358 230.298C748.991 231.453 749.178 232.298 749.8 232.298C750.448 232.298 750.774 234.089 750.617 236.793C750.265 242.901 749.143 242.477 748.643 236.048C748.251 230.997 748.56 228.298 749.532 228.298C749.786 228.298 749.707 229.198 749.358 230.298ZM310.22 231.798C310.567 232.703 310.225 233.298 309.358 233.298C308.491 233.298 308.149 232.703 308.496 231.798C308.813 230.973 309.201 230.298 309.358 230.298C309.515 230.298 309.903 230.973 310.22 231.798ZM740.858 233.739C740.858 233.982 740.408 234.458 739.858 234.798C739.308 235.138 738.858 234.939 738.858 234.357C738.858 233.775 739.308 233.298 739.858 233.298C740.408 233.298 740.858 233.496 740.858 233.739ZM197.671 237.236C197.921 237.986 197.546 238.361 196.796 238.111C196.074 237.87 195.286 237.082 195.046 236.361C194.796 235.611 195.171 235.236 195.921 235.486C196.642 235.726 197.43 236.514 197.671 237.236ZM214.358 236.298C214.698 236.848 214.526 237.298 213.976 237.298C213.426 237.298 212.698 236.848 212.358 236.298C212.018 235.748 212.19 235.298 212.74 235.298C213.29 235.298 214.018 235.748 214.358 236.298ZM93.8585 238.298C93.8585 238.848 93.4085 239.298 92.8585 239.298C92.3085 239.298 91.8585 238.848 91.8585 238.298C91.8585 237.748 92.3085 237.298 92.8585 237.298C93.4085 237.298 93.8585 237.748 93.8585 238.298ZM495.858 240.298C495.858 240.848 495.381 241.298 494.799 241.298C494.217 241.298 494.018 240.848 494.358 240.298C494.698 239.748 495.174 239.298 495.417 239.298C495.66 239.298 495.858 239.748 495.858 240.298ZM499.858 241.798C499.858 242.623 499.681 243.298 499.465 243.298C499.249 243.298 498.813 242.623 498.496 241.798C498.18 240.973 498.357 240.298 498.889 240.298C499.422 240.298 499.858 240.973 499.858 241.798ZM96.8585 245.298C96.8585 245.848 96.4085 246.298 95.8585 246.298C95.3085 246.298 94.8585 245.848 94.8585 245.298C94.8585 244.748 95.3085 244.298 95.8585 244.298C96.4085 244.298 96.8585 244.748 96.8585 245.298ZM749.858 257.274C749.858 258.931 747.649 259.575 746.763 258.176C745.113 255.573 745.664 254.124 747.858 255.298C748.958 255.887 749.858 256.776 749.858 257.274ZM310.858 256.298C310.858 256.848 310.408 257.298 309.858 257.298C309.308 257.298 308.858 256.848 308.858 256.298C308.858 255.748 309.308 255.298 309.858 255.298C310.408 255.298 310.858 255.748 310.858 256.298ZM500.421 264.428C502.518 266.662 502.783 267.261 501.347 266.52C498.841 265.228 495.205 261.298 496.516 261.298C497.048 261.298 498.806 262.706 500.421 264.428ZM94.6294 263.486C94.4114 264.139 93.6985 264.851 93.0455 265.069C92.3145 265.313 92.0914 264.855 92.4644 263.882C93.1624 262.064 95.2294 261.686 94.6294 263.486ZM92.3585 269.298C92.6985 269.848 92.4994 270.298 91.9174 270.298C91.3354 270.298 90.8585 269.848 90.8585 269.298C90.8585 268.748 91.0565 268.298 91.2995 268.298C91.5425 268.298 92.0185 268.748 92.3585 269.298ZM116.22 271.798C116.536 272.623 116.359 273.298 115.827 273.298C115.294 273.298 114.858 272.623 114.858 271.798C114.858 270.973 115.035 270.298 115.251 270.298C115.467 270.298 115.903 270.973 116.22 271.798ZM323.858 273.298C323.858 273.848 323.408 274.298 322.858 274.298C322.308 274.298 321.858 273.848 321.858 273.298C321.858 272.748 322.308 272.298 322.858 272.298C323.408 272.298 323.858 272.748 323.858 273.298ZM101.549 278.909C102.88 280.345 103.807 281.683 103.609 281.881C103.094 282.396 96.8965 277.948 96.8755 277.048C96.8395 275.458 99.2355 276.412 101.549 278.909ZM44.8775 288.821C45.9345 290.094 45.8724 290.241 44.4994 289.714C43.5974 289.367 42.8585 288.682 42.8585 288.191C42.8585 286.905 43.4375 287.086 44.8775 288.821ZM339.541 292.486C339.222 293.283 338.985 293.046 338.937 291.881C338.894 290.827 339.13 290.237 339.462 290.569C339.794 290.901 339.83 291.764 339.541 292.486ZM47.8585 294.298C47.8585 294.848 47.4085 295.298 46.8585 295.298C46.3085 295.298 45.8585 294.848 45.8585 294.298C45.8585 293.748 46.3085 293.298 46.8585 293.298C47.4085 293.298 47.8585 293.748 47.8585 294.298ZM703.858 293.739C703.858 293.982 703.408 294.458 702.858 294.798C702.308 295.138 701.858 294.939 701.858 294.357C701.858 293.775 702.308 293.298 702.858 293.298C703.408 293.298 703.858 293.496 703.858 293.739ZM689.923 306.58C688.09 308.35 686.942 309.123 687.373 308.298C688.655 305.841 692.159 302.266 692.727 302.834C693.018 303.124 691.756 304.81 689.923 306.58ZM641.708 311.949C641.901 312.068 641.745 312.672 641.362 313.291C640.889 314.057 640.226 313.837 639.294 312.608C637.356 310.052 637.533 308.805 639.608 310.393C640.57 311.129 641.516 311.829 641.708 311.949ZM624.827 313.798C624.827 314.348 624.391 314.123 623.858 313.298C623.325 312.473 622.889 311.348 622.889 310.798C622.889 310.248 623.325 310.473 623.858 311.298C624.391 312.123 624.827 313.248 624.827 313.798ZM650.858 310.643C650.858 310.833 649.893 311.845 648.712 312.893C646.578 314.788 646.573 314.786 647.748 312.548C648.722 310.69 650.858 309.382 650.858 310.643ZM615.384 317.406C615.461 318.446 615.149 319.298 614.691 319.298C614.233 319.298 613.858 318.368 613.858 317.232C613.858 316.096 613.395 314.184 612.829 312.982C611.902 311.015 611.971 311.032 613.523 313.156C614.47 314.452 615.308 316.365 615.384 317.406ZM624.858 320.798C624.858 321.623 624.408 322.298 623.858 322.298C623.308 322.298 622.858 321.623 622.858 320.798C622.858 319.973 623.308 319.298 623.858 319.298C624.408 319.298 624.858 319.973 624.858 320.798Z" fill="white"/>
</svg>
