<svg width="1048" height="158" viewBox="0 0 1048 158" fill="none" xmlns="http://www.w3.org/2000/svg">
<path fill-rule="evenodd" clip-rule="evenodd" d="M3.811 2.89451C-0.0369954 6.74251 -0.0589962 11.9535 3.757 15.7695C6.223 18.2355 7.45901 18.5935 15.45 19.1575C23.248 19.7085 24.71 20.1135 26.942 22.3475C29.258 24.6655 29.517 25.7315 29.681 33.6325C29.781 38.4315 29.793 44.8335 29.707 47.8585C29.622 50.8835 29.653 70.8795 29.776 92.2935C29.999 130.964 29.985 131.245 27.84 133.528C26.652 134.793 24.172 136.111 22.329 136.457C20.486 136.803 18.76 137.437 18.495 137.867C18.229 138.296 16.148 138.176 13.87 137.598C10.849 136.831 9.22901 136.859 7.87801 137.702C6.86001 138.338 5.34601 138.858 4.51401 138.858C3.68101 138.858 3 139.478 3 140.236C3 140.993 2.325 142.173 1.5 142.858C0.65 143.564 0 145.744 0 147.892C0 150.937 0.635995 152.216 3.245 154.411L6.491 157.142L18.995 156.389C34.739 155.441 47.677 155.418 65.556 156.311L79.611 157.014L82.806 153.746C87.04 149.414 87.092 145.355 82.967 141.135C80.464 138.575 78.933 137.944 74.217 137.528C59.383 136.221 58.075 134.852 57.952 120.499C57.904 114.922 57.904 108.896 57.953 107.108C58.191 98.2805 58.183 96.0185 57.899 91.8585C57.73 89.3835 57.672 82.1835 57.769 75.8585C57.866 69.5335 57.951 62.7835 57.958 60.8585C58.076 25.6585 58.128 24.7305 60.088 22.7705C61.139 21.7195 63.141 20.8585 64.535 20.8585C65.93 20.8585 68.176 20.1335 69.528 19.2485C71.12 18.2045 73.308 17.7985 75.743 18.0935C80.688 18.6925 83.566 17.2935 85.418 13.3895C87.373 9.2715 85.992 3.7385 82.427 1.4025C80.314 0.0175031 78.28 -0.153517 70.196 0.369483C59.456 1.06548 38.111 1.11649 19.061 0.491492L6.621 0.0835028L3.811 2.89451ZM494.948 1.0915C493.602 1.5995 489.342 1.72651 485.482 1.37351C477.51 0.644511 474.086 1.58348 470.462 5.49448C467.622 8.55848 467.4 10.7915 469.498 15.2125C470.927 18.2255 472.802 19.3985 479.5 21.4715L482.5 22.3995L483 34.8795C483.275 41.7425 483.345 48.7625 483.156 50.4795L482.811 53.5995L478.656 51.3935C473.556 48.6855 472.684 48.5485 461.702 48.7195C456.081 48.8075 451.856 49.3985 450.001 50.3575C448.405 51.1835 446.37 51.8585 445.479 51.8585C442.814 51.8585 431.144 60.7785 427.703 65.4455C421.244 74.2065 420.492 75.4525 418.691 80.3585C415.798 88.2405 414.776 95.5165 414.935 107.107C415.074 117.261 417.251 127.915 419.871 131.267C420.34 131.868 421.011 133.562 421.362 135.033C421.713 136.504 425.151 140.834 429.002 144.655C435.033 150.638 437.076 151.982 443.741 154.348C450.403 156.713 452.383 157.001 457.989 156.426C461.57 156.059 465.349 155.758 466.386 155.757C468.806 155.753 477.836 151.247 480.719 148.603L482.939 146.567L483.906 149.113C485.85 154.225 492.174 156.263 498.557 153.837C500.25 153.192 501.664 153.164 502.382 153.76C503.008 154.279 506.322 155.022 509.748 155.41C515.513 156.062 516.237 155.916 519.488 153.436C522.586 151.073 523 150.226 523 146.262C523 139.923 519.492 136.395 513.932 137.14C510.561 137.592 509.698 137.287 507.729 134.947C505.609 132.429 505.488 131.611 506.07 123.795C506.416 119.155 506.35 114.13 505.924 112.628C505.499 111.126 505.59 108.308 506.126 106.365C506.662 104.422 506.826 102.387 506.49 101.843C505.754 100.652 505.862 67.3895 506.708 34.3585C507.047 21.1585 507.33 8.90651 507.338 7.13151C507.365 0.977507 502.08 -1.5995 494.948 1.0915ZM749.5 1.74448C744.449 4.90748 742.712 7.69649 743.349 11.6205C744.12 16.3715 746.606 18.8585 750.582 18.8585C754.146 18.8585 758.662 23.1845 757.255 25.2495C756.647 26.1425 756.492 38.8905 757.004 45.8585C757.101 47.1825 757.134 52.8515 757.102 62.3585C757.096 64.0085 757.041 80.1805 756.981 98.2965C756.863 133.348 756.317 137.858 752.197 137.858C749.916 137.858 745 142.181 745 144.186C745 148.474 746.429 151.68 749.022 153.212C751.411 154.623 754.671 154.871 769.654 154.781C785.674 154.685 787.727 154.478 790.225 152.699C796.066 148.54 791.955 137.858 784.513 137.858C779.557 137.858 779 136.54 779 124.815V114.171L784.18 109.805C787.111 107.333 789.526 105.935 789.742 106.585C789.953 107.218 791.672 109.761 793.563 112.236C795.453 114.712 797 117.269 797 117.917C797 118.565 798.34 120.729 799.977 122.727C805.778 129.804 807.037 131.402 809.906 135.324C812.793 139.272 812.798 139.3 810.903 141.708C808.743 144.455 808.468 148.636 810.302 150.858C813.149 154.307 815.728 154.765 831.932 154.689C846.322 154.621 848.308 154.405 850.522 152.663C852.479 151.124 853 149.801 853 146.374C853 142.757 852.488 141.605 849.923 139.447C847.78 137.644 845.679 136.858 843.001 136.858C839.545 136.858 838.665 136.275 834.327 131.108C831.672 127.945 829.019 124.909 828.43 124.358C827.842 123.808 826.492 122.057 825.43 120.468C821.997 115.327 821.547 114.747 818.25 111.206C816.463 109.286 815 107.166 815 106.495C815 105.824 813.537 103.616 811.75 101.589C809.963 99.5615 807.197 96.2935 805.604 94.3275L802.709 90.7505L805.104 89.0755C806.422 88.1545 809.385 85.3665 811.689 82.8795C813.992 80.3935 818.069 75.9955 820.749 73.1085C823.428 70.2215 826.355 67.8585 827.251 67.8585C828.148 67.8585 829.138 67.4435 829.452 66.9365C829.765 66.4305 832.949 65.7015 836.527 65.3185C842.099 64.7215 843.317 64.2225 845.016 61.8355C846.107 60.3035 847 58.3095 847 57.4045C847 54.9265 844.209 50.0315 842.24 49.0565C841.283 48.5825 833.641 48.3005 825.257 48.4305C812.481 48.6275 809.498 48.9675 806.825 50.5285C802.55 53.0255 801.52 56.9785 804.243 60.4405L806.304 63.0595L793.495 75.4215C786.45 82.2195 780.365 87.5845 779.972 87.3415C779.58 87.0985 779.472 72.8285 779.734 55.6295C780.548 2.02349 780.608 4.42748 778.394 2.05048C776.623 0.150483 775.857 0.030497 770.398 0.802497C767.059 1.2745 762.379 1.27348 759.93 0.800483C753.609 -0.419517 752.845 -0.350517 749.5 1.74448ZM55 25.8585C55 26.4085 54.802 26.8585 54.559 26.8585C54.316 26.8585 53.84 26.4085 53.5 25.8585C53.16 25.3085 53.359 24.8585 53.941 24.8585C54.523 24.8585 55 25.3085 55 25.8585ZM764.5 26.8585C764.84 27.4085 764.641 27.8585 764.059 27.8585C763.477 27.8585 763 27.4085 763 26.8585C763 26.3085 763.198 25.8585 763.441 25.8585C763.684 25.8585 764.16 26.3085 764.5 26.8585ZM50.25 28.5205C49.563 28.7985 48.438 28.7985 47.75 28.5205C47.063 28.2435 47.625 28.0165 49 28.0165C50.375 28.0165 50.938 28.2435 50.25 28.5205ZM236.737 46.4555C236.417 46.7745 234.208 47.4705 231.828 48.0015C226.4 49.2115 217.757 53.2415 215.969 55.3955C215.224 56.2935 212.677 58.3605 210.308 59.9905C207.714 61.7755 206 63.7315 206 64.9065C206 65.9805 205.582 66.8585 205.071 66.8585C202.216 66.8585 196.247 79.6655 194.351 89.8585C192.288 100.945 194.639 123.282 198.092 125.416C198.592 125.725 199 126.986 199 128.221C199 132.591 207.405 143.466 213.032 146.376C214.664 147.22 216 148.313 216 148.806C216 149.299 217.688 150.245 219.75 150.908C221.813 151.57 224.311 152.821 225.303 153.689C227.712 155.795 236.407 157.001 248 156.837C262.043 156.639 269.337 153.164 282.125 140.577C285.356 137.396 288 134.074 288 133.194C288 132.314 288.927 130.094 290.06 128.262C294.036 121.828 297.173 105.788 296.508 95.2895C295.978 86.9095 293.038 75.6625 290.703 73.0835C289.767 72.0485 289 70.4045 289 69.4305C289 68.4575 287.745 66.4675 286.211 65.0095C284.678 63.5515 282.466 60.9925 281.296 59.3225C280.126 57.6525 277.9 55.6275 276.348 54.8225C274.797 54.0175 272.493 52.4755 271.227 51.3965C269.962 50.3175 266.806 48.7995 264.213 48.0245C259.476 46.6065 237.821 45.3705 236.737 46.4555ZM568.5 46.6605C566.85 46.8265 564.082 47.6135 562.349 48.4105C560.616 49.2065 558.288 49.8585 557.176 49.8585C556.063 49.8585 553.816 50.9835 552.182 52.3585C550.548 53.7335 548.788 54.8585 548.27 54.8585C547.752 54.8585 545.712 56.6585 543.737 58.8585C541.762 61.0585 539.694 62.8585 539.141 62.8585C538.587 62.8585 537.82 63.8705 537.436 65.1085C537.052 66.3465 535.784 68.7025 534.619 70.3445C531.376 74.9135 530 77.8725 530 80.2725C530 81.4745 529.522 82.9365 528.937 83.5215C528.353 84.1055 527.725 86.5575 527.542 88.9715C527.359 91.3845 526.721 94.6015 526.125 96.1195C525.313 98.1885 525.432 101.576 526.601 109.619C527.982 119.132 528.91 122.659 532.057 130.358C532.506 131.458 533.177 133.43 533.547 134.741C534.812 139.226 550.077 153.023 555 154.132C556.375 154.441 559.371 155.391 561.659 156.241C567.599 158.449 584.627 157.495 591.5 154.569C602.424 149.919 614 138.691 614 132.743C614 129.322 609.61 124.188 605.956 123.338C603.855 122.849 602.291 123.767 596.956 128.63C592.832 132.389 588.628 135.183 585.318 136.361C580.612 138.036 579.482 138.081 573.032 136.864C565.06 135.36 559.726 131.956 555.275 125.533C552.294 121.232 549.82 111.254 551.108 108.731C551.992 107 554.423 106.877 595.145 106.509C614.341 106.335 615.303 105.958 616.369 98.1835C617.299 91.3985 615.09 75.8175 612.84 73.2945C611.828 72.1585 611 70.5155 611 69.6435C611 67.2475 603.198 58.4245 597.048 53.8675C591.873 50.0315 586.548 47.8305 581 47.2345C574.432 46.5285 571.258 46.3825 568.5 46.6605ZM160.796 47.3765C160.409 47.7745 158.034 48.4835 155.519 48.9535C151.184 49.7635 148.265 51.5975 138.607 59.5785C134.493 62.9775 132.496 63.0215 133.554 59.6875C134.651 56.2315 133.074 50.9525 130.426 49.2185C128.252 47.7935 127.022 47.7415 120.475 48.7975C114.608 49.7445 111.826 49.7395 107.513 48.7745C102.678 47.6915 101.544 47.7605 98.023 49.3485C94.178 51.0815 90 56.3005 90 59.3685C90 64.4975 95.801 69.2485 100.834 68.2415C103.057 67.7975 104.7 68.2205 106.939 69.8155C109.833 71.8755 109.994 72.3415 109.839 78.1775C109.748 81.5775 109.776 95.0805 109.902 108.185C110.166 135.85 110.216 135.669 101.901 137.616C98.912 138.315 95.48 139.925 94.158 141.246C92.138 143.266 91.886 144.221 92.465 147.65C93.34 152.831 96.056 155.286 100.803 155.187C123.057 154.722 134.053 154.634 142.339 154.854C150.833 155.08 152.542 154.845 154.839 153.137C158.557 150.372 159.029 144.156 155.802 140.441C153.814 138.154 152.567 137.741 146.665 137.419C141.261 137.125 139.325 136.572 137.415 134.778C135.005 132.514 135 132.469 135 110.664C135 89.0625 135.028 88.7745 137.51 84.8425C140.363 80.3225 150.848 72.2705 155.095 71.3375C159.189 70.4385 163.428 72.7515 163.815 76.0965C164.008 77.7715 165.538 79.9805 167.792 81.8385C173.772 86.7685 180.509 85.5655 185.996 78.5905C187.733 76.3825 188.135 74.5295 188.117 68.8275C188.096 61.9225 188.008 61.6865 183.495 56.4045C180.965 53.4425 177.835 50.3245 176.539 49.4765C173.987 47.8035 161.944 46.1975 160.796 47.3765ZM364.249 47.8905C363.011 48.3875 361.373 48.5555 360.61 48.2625C358.922 47.6145 350.8 51.8965 344.104 56.9645C339.243 60.6435 337.614 61.0275 338.683 58.2425C339.538 56.0145 337.118 51.2595 334.384 49.7965C332.436 48.7535 330.776 48.7015 326.7 49.5555C323.297 50.2675 319.6 50.3305 316 49.7395C312.975 49.2415 309.588 49.0485 308.472 49.3095C305.293 50.0545 300.978 55.2075 300.396 58.9525C299.959 61.7615 300.394 62.9285 302.877 65.6085C305.29 68.2145 306.667 68.8585 309.821 68.8585C312.028 68.8585 314.281 69.4915 314.952 70.3005C315.818 71.3445 316.184 80.3135 316.277 102.749C316.421 137.615 316.539 137.038 309.045 138.236C306.434 138.653 304.343 139.85 302.591 141.932C298.987 146.216 299.196 150.004 303.226 153.395C306.392 156.059 306.622 156.096 315.476 155.361C324.399 154.62 329.376 154.512 341.967 154.785C351.438 154.99 355.366 151.436 353.571 144.285C352.732 140.941 349.093 137.858 345.986 137.858C342.479 137.858 339.026 134.062 339.128 130.319C339.173 128.69 339.176 119.933 339.134 110.858C339.01 83.6485 339.344 81.8365 345.675 75.3125C353.114 67.6475 364.096 63.7255 367.916 67.3695C368.787 68.2005 370.516 69.6625 371.758 70.6195C375.774 73.7125 376.681 80.9095 376.549 108.618C376.443 130.861 376.225 134.114 374.724 135.867C373.787 136.962 371.913 137.858 370.561 137.858C367.489 137.858 363 143.435 363 147.251C363 148.934 364.039 150.89 365.75 152.431C368.378 154.797 369.011 154.895 380 154.674C386.325 154.546 394.657 154.795 398.516 155.228C404.855 155.938 405.796 155.806 408.266 153.863C410.531 152.082 411 150.93 411 147.15C411 141.745 407.683 137.858 403.071 137.858C401.517 137.858 399.75 137.262 399.145 136.533C398.421 135.66 398.05 127.905 398.057 113.783C398.079 69.7285 397.982 68.8335 392.244 60.1785C388.149 54.0025 382.764 50.2085 375.35 48.2775C369.174 46.6685 367.438 46.6085 364.249 47.8905ZM689.703 47.4885C689.367 47.8245 686.973 48.4955 684.383 48.9795C679.41 49.9085 671.186 54.5625 667 58.8175L664.5 61.3585L664.194 57.1365C663.734 50.7985 660.308 48.4425 653.007 49.4445C647.442 50.2085 639.774 50.1485 634.777 49.3005C630.69 48.6085 626.037 53.1615 625.313 58.5605C624.814 62.2855 625.095 63.1075 627.798 65.8105C630.19 68.2025 631.716 68.8585 634.888 68.8585C641.492 68.8585 641.128 65.7895 641.049 120.761C641.027 135.51 640.289 137.288 633.821 138.155C628.265 138.9 625 142.455 625 147.759C625 154.951 631.184 157.049 646.623 155.09C650.956 154.54 656.75 154.382 659.5 154.739C666.183 155.606 674.733 154.41 677.089 152.277C680.047 149.602 679.664 143.379 676.354 140.311C674.899 138.963 672.699 137.858 671.465 137.858C667.363 137.858 665.024 134.849 664.47 128.858C663.47 118.063 663.951 84.8205 665.139 82.5535C666.946 79.1035 673.094 72.4975 675.925 70.9635C677.341 70.1955 678.725 69.2565 679 68.8765C680.15 67.2875 686.525 65.9185 690.107 66.4915C694.827 67.2465 700.403 72.5465 700.717 76.5755C700.836 78.1065 701.112 91.6825 701.33 106.745C701.705 132.61 701.621 134.237 699.827 136.031C698.782 137.076 697.507 137.671 696.993 137.354C695.395 136.366 689.963 139.826 688.957 142.471C687.211 147.064 687.811 150.564 690.738 152.866C693.259 154.849 694.506 155.003 706.488 154.811C713.645 154.695 721.975 154.91 725 155.288C729.928 155.903 730.786 155.724 733.25 153.551C735.48 151.585 736 150.278 736 146.647C736 142.074 735.18 140.86 730.209 138.074C728.949 137.368 727.538 137.027 727.073 137.314C725.388 138.355 723.602 134.567 723.396 129.518C723.204 124.811 723.039 107.931 723.125 101.858C723.144 100.483 723.121 98.2335 723.074 96.8585C723.026 95.4835 722.987 89.4865 722.988 83.5325C722.988 77.5775 722.541 71.8695 721.994 70.8475C721.447 69.8265 721 67.8435 721 66.4415C721 65.0395 719.882 62.6475 718.515 61.1255C717.147 59.6035 715.111 57.1485 713.99 55.6695C712.868 54.1905 709.599 51.8875 706.725 50.5515C701.641 48.1875 690.931 46.2605 689.703 47.4885ZM893.638 47.6355C893.314 48.1595 891.306 48.8225 889.175 49.1085C887.044 49.3935 883.321 51.0625 880.901 52.8145C874.693 57.3105 867 64.7585 867 66.2715C867 66.9745 866.1 68.3635 865 69.3585C863.9 70.3535 862.997 71.6615 862.994 72.2635C862.99 72.8655 862.413 74.4835 861.711 75.8585C858.415 82.3155 856.706 91.7655 856.555 104.358C856.442 113.794 857.267 119.25 859.601 124.509C860.371 126.243 861 128.116 861 128.673C861 130.363 867.169 141.858 868.076 141.858C868.542 141.858 870.697 143.546 872.866 145.608C878.447 150.915 882.56 153.858 884.397 153.858C885.267 153.858 888.346 154.77 891.239 155.884C895.808 157.644 897.881 157.827 907 157.278C916.444 156.709 918.154 156.296 924 153.165C934.163 147.722 944 137.066 944 131.501C944 128.145 937.393 122.568 934.315 123.326C933.114 123.621 929.536 126.337 926.364 129.361C923.192 132.384 920.125 134.861 919.548 134.864C918.972 134.868 917.34 135.476 915.922 136.215C912.622 137.938 901.678 137.547 897 135.538C891.442 133.152 885.777 128.123 883.496 123.55C881.749 120.049 879.617 108.907 880.521 108.004C880.876 107.649 882.817 107.341 884.834 107.318C886.85 107.296 900.08 107.183 914.234 107.068L939.968 106.858L943.025 104.108C945.749 101.659 946.097 100.703 946.212 95.3585C946.448 84.4175 941.924 68.7825 937.138 63.9965C936.045 62.9035 934.694 61.1555 934.135 60.1115C933.577 59.0675 931.18 56.8975 928.81 55.2885C926.439 53.6805 924.23 51.9955 923.9 51.5445C923.57 51.0945 922.67 50.5995 921.9 50.4455C921.13 50.2915 919.15 49.5605 917.5 48.8215C913.926 47.2195 894.492 46.2545 893.638 47.6355ZM1020.74 47.4475C1020.42 47.7715 1018.3 48.4535 1016.03 48.9625C1011.63 49.9525 1003.88 54.8375 997.75 60.4825C994.731 63.2655 993.989 63.5895 993.945 62.1485C993.678 53.3955 993.232 51.4645 991.067 49.7115C988.482 47.6185 985.228 47.3895 979.735 48.9155C977.121 49.6415 973.684 49.6425 968.495 48.9215C959.496 47.6695 955.006 49.2185 952.534 54.4285C950.318 59.0975 950.638 62.2235 953.636 65.2225C955.733 67.3185 957.23 67.8585 960.948 67.8585C964.27 67.8585 966.256 68.4485 967.811 69.8975C970.278 72.1955 970.256 71.7935 970.144 111.235C970.074 136.157 970.067 136.178 962.19 137.342C959.61 137.725 956.721 138.734 955.77 139.585C953.755 141.387 952.523 146.82 953.366 150.181C954.177 153.411 959.876 156.348 963.598 155.452C967.28 154.567 1002.66 154.456 1007.74 155.315C1014.48 156.453 1020.76 150.404 1018.43 145.035C1018.03 144.113 1017.57 142.706 1017.41 141.908C1016.95 139.639 1012.7 136.858 1010.65 137.488C1007.36 138.5 1000.48 136.86 997.876 134.444L995.337 132.09L995.104 110.645L994.87 89.2005L998.084 84.0295C999.852 81.1855 1001.75 78.8585 1002.3 78.8585C1002.85 78.8585 1005.28 77.2315 1007.71 75.2425C1011.34 72.2625 1012.95 71.6135 1016.85 71.5545C1022.6 71.4675 1024 72.2285 1024 75.4505C1024 76.9475 1025.39 79.3145 1027.52 81.4435C1030.76 84.6865 1031.44 84.9385 1036.22 84.6605C1041.03 84.3805 1041.66 84.0385 1044.71 80.0305C1047.65 76.1675 1048 75.0085 1048 69.2315C1048 65.4995 1047.38 61.5585 1046.53 59.9235C1044.18 55.3755 1036.73 49.4685 1031.62 48.1025C1026.67 46.7775 1021.71 46.4785 1020.74 47.4475ZM765.526 49.6655C765.219 49.9735 764.412 49.6665 763.733 48.9825C762.753 47.9945 762.868 47.8805 764.293 48.4225C765.279 48.7985 765.834 49.3575 765.526 49.6655ZM975.694 58.8585C975.071 60.5085 974.199 61.8585 973.755 61.8585C973.312 61.8585 973.647 60.5085 974.5 58.8585C975.353 57.2085 976.226 55.8585 976.439 55.8585C976.652 55.8585 976.317 57.2085 975.694 58.8585ZM163 57.2995C163 57.5425 162.55 58.0185 162 58.3585C161.45 58.6985 161 58.4995 161 57.9175C161 57.3355 161.45 56.8585 162 56.8585C162.55 56.8585 163 57.0565 163 57.2995ZM115.122 60.5335C114.251 62.0325 114.055 62.0755 114.03 60.7755C113.998 59.0915 115.05 57.5745 115.758 58.2835C115.992 58.5175 115.706 59.5295 115.122 60.5335ZM1017 59.8585C1017 60.4085 1016.55 60.8585 1016 60.8585C1015.45 60.8585 1015 60.4085 1015 59.8585C1015 59.3085 1015.45 58.8585 1016 58.8585C1016.55 58.8585 1017 59.3085 1017 59.8585ZM912.73 65.8535C918.665 69.0345 920.646 71.8665 921.832 78.8585C923.758 90.2185 925.389 89.3585 901.905 89.3585H881.5L881.819 85.4055C882.198 80.6985 886.355 71.8125 889.608 68.7565C892.823 65.7365 901.405 62.9985 905.801 63.5905C907.789 63.8585 910.908 64.8775 912.73 65.8535ZM583.174 66.1135C585.195 67.3485 587.767 69.5345 588.889 70.9715C591.463 74.2675 593.245 82.0345 592.428 86.3935L591.802 89.7285L571.901 89.7705C556.876 89.8025 551.975 89.5115 551.899 88.5855C551.623 85.2415 552.266 80.2535 553.082 79.4085C553.587 78.8865 554 77.7445 554 76.8725C554 74.7435 560.762 67.4085 564.5 65.4835C569.173 63.0765 578.732 63.3995 583.174 66.1135ZM258.079 67.4565C258.947 68.2275 260.124 68.8585 260.694 68.8585C264.655 68.8585 271.709 79.7785 272.622 87.3235C274.462 102.528 274.046 109.293 270.724 118.21C268.848 123.243 259.375 133.753 256.076 134.462C254.659 134.766 252.6 135.392 251.5 135.853C247.298 137.616 244.638 137.668 239.653 136.09C228.777 132.647 221.3 125.426 218.216 115.388C216.253 108.996 216.353 96.5305 218.416 90.4525C219.287 87.8875 220 84.9595 220 83.9455C220 82.9325 220.675 81.5435 221.5 80.8585C222.325 80.1735 223 79.0665 223 78.3965C223 76.6665 229.053 71.3825 233.821 68.9495C236.045 67.8155 238.077 66.5425 238.337 66.1225C239.173 64.7695 256.36 65.9305 258.079 67.4565ZM996.541 67.7915C996.179 68.3785 995.121 68.8065 994.191 68.7425C992.666 68.6375 992.672 68.5815 994.25 68.1695C995.213 67.9175 996 67.2195 996 66.6185C996 66.0175 996.27 65.7955 996.6 66.1255C996.93 66.4555 996.904 67.2055 996.541 67.7915ZM473.909 69.8115C475.957 70.8575 478.221 72.4205 478.939 73.2855C479.657 74.1505 480.847 74.8585 481.582 74.8585C482.665 74.8585 482.879 79.1815 482.709 97.6085C482.502 120.118 482.474 120.396 480 123.858C478.625 125.784 477.154 127.511 476.732 127.697C476.31 127.884 475.41 128.574 474.732 129.231C474.054 129.888 471.475 131.557 469 132.94C465.027 135.16 463.764 135.379 458.218 134.806C453.331 134.301 451.112 133.493 448.218 131.165C440.729 125.14 436.602 115.871 436.729 105.358C436.809 98.7545 438.482 90.0895 440.62 85.2075C441.379 83.4745 442 81.7285 442 81.3285C442 80.9285 443.659 78.7465 445.687 76.4795C450.474 71.1285 460.782 66.5815 466.342 67.3675C468.455 67.6665 471.86 68.7665 473.909 69.8115ZM776 71.3585C776 72.1835 775.307 72.8585 774.461 72.8585C773.189 72.8585 773.145 72.6045 774.211 71.3965C775.85 69.5385 776 69.5345 776 71.3585ZM817.5 70.8585C817.84 71.4085 817.641 71.8585 817.059 71.8585C816.477 71.8585 816 71.4085 816 70.8585C816 70.3085 816.198 69.8585 816.441 69.8585C816.684 69.8585 817.16 70.3085 817.5 70.8585ZM134 73.8585C134 74.4085 133.523 74.8585 132.941 74.8585C132.359 74.8585 132.16 74.4085 132.5 73.8585C132.84 73.3085 133.316 72.8585 133.559 72.8585C133.802 72.8585 134 73.3085 134 73.8585ZM767.683 75.0465C767.364 75.8435 767.127 75.6065 767.079 74.4415C767.036 73.3875 767.272 72.7975 767.604 73.1295C767.936 73.4615 767.972 74.3245 767.683 75.0465ZM874.683 95.0465C874.364 95.8435 874.127 95.6065 874.079 94.4415C874.036 93.3875 874.272 92.7975 874.604 93.1295C874.936 93.4615 874.972 94.3245 874.683 95.0465ZM546 94.8585C546 95.4085 545.802 95.8585 545.559 95.8585C545.316 95.8585 544.84 95.4085 544.5 94.8585C544.16 94.3085 544.359 93.8585 544.941 93.8585C545.523 93.8585 546 94.3085 546 94.8585ZM653 95.8585C653 96.4085 652.55 96.8585 652 96.8585C651.45 96.8585 651 96.4085 651 95.8585C651 95.3085 651.45 94.8585 652 94.8585C652.55 94.8585 653 95.3085 653 95.8585ZM779.729 100.463C779.397 100.795 778.534 100.831 777.813 100.542C777.015 100.223 777.252 99.9855 778.417 99.9375C779.471 99.8945 780.061 100.131 779.729 100.463ZM424 102.858C424 103.409 423.523 103.858 422.941 103.858C422.359 103.858 422.16 103.409 422.5 102.858C422.84 102.308 423.316 101.858 423.559 101.858C423.802 101.858 424 102.308 424 102.858ZM45.683 112.046C45.364 112.843 45.127 112.607 45.079 111.442C45.036 110.388 45.272 109.797 45.604 110.129C45.936 110.461 45.972 111.324 45.683 112.046ZM988.5 126.858C988.84 127.409 988.641 127.858 988.059 127.858C987.477 127.858 987 127.409 987 126.858C987 126.308 987.198 125.858 987.441 125.858C987.684 125.858 988.16 126.308 988.5 126.858ZM332.5 127.858C332.84 128.408 332.641 128.858 332.059 128.858C331.477 128.858 331 128.408 331 127.858C331 127.308 331.198 126.858 331.441 126.858C331.684 126.858 332.16 127.308 332.5 127.858ZM976.5 139.858C976.84 140.408 976.641 140.858 976.059 140.858C975.477 140.858 975 140.408 975 139.858C975 139.308 975.198 138.858 975.441 138.858C975.684 138.858 976.16 139.308 976.5 139.858ZM780 149.465C780 149.681 779.325 149.858 778.5 149.858C777.675 149.858 777 149.423 777 148.889C777 148.357 777.675 148.18 778.5 148.496C779.325 148.813 780 149.249 780 149.465Z" fill="black"/>
</svg>
