<svg width="818" height="323" viewBox="0 0 818 323" fill="none" xmlns="http://www.w3.org/2000/svg">
<path fill-rule="evenodd" clip-rule="evenodd" d="M287.812 1.65985C287.203 2.39385 286.104 2.99387 285.37 2.99387C283.364 2.99387 275.95 10.4269 275.95 12.4379C275.95 15.5489 279.081 20.9019 281.296 21.5779C284.964 22.6969 290.915 29.2169 290.933 32.1369C290.942 33.5909 291.625 35.0389 292.45 35.3559C294.132 36.0009 294.498 40.5369 292.946 41.4959C291.686 42.2749 292.3 53.5219 293.807 57.2759C294.998 60.2389 295.014 80.2719 293.828 82.1909C293.444 82.8119 290.277 83.3859 286.79 83.4649C283.303 83.5449 279.216 84.1339 277.709 84.7739C276.201 85.4139 274.312 85.6859 273.51 85.3789C272.709 85.0709 270.679 85.6319 268.998 86.6249C266.582 88.0519 265.367 88.2149 263.196 87.4059C261.533 86.7849 258.901 86.7079 256.521 87.2089C254.056 87.7289 252.212 87.6559 251.571 87.0149C250.007 85.4509 243.646 85.7999 239.929 87.6549C237.134 89.0479 235.908 89.1299 232.289 88.1619C223.463 85.8019 212.695 90.5799 211.26 97.4939C210.209 102.556 210.673 105.351 212.858 107.12C214.008 108.052 214.95 109.755 214.95 110.904C214.95 114.286 221.726 119.624 227.45 120.753C231.054 121.463 237.312 121.032 238.341 120.003C238.896 119.448 241.42 118.994 243.95 118.994C246.48 118.994 249.048 118.496 249.657 117.887C250.331 117.213 256.017 116.689 264.193 116.547C271.579 116.419 278.172 115.975 278.843 115.56C280.628 114.457 284.95 115.797 284.95 117.454C284.95 118.236 285.426 119.17 286.007 119.529C287.714 120.584 291.953 120.798 292.533 119.859C293.474 118.337 294.7 118.929 295.292 121.192C295.608 122.401 295.413 123.936 294.86 124.603C294.306 125.27 294.229 126.048 294.688 126.332C295.646 126.924 295.556 130.248 294.473 134.257C294.024 135.919 294.169 137.553 294.838 138.359C295.65 139.337 295.652 140.549 294.847 142.858C293.663 146.255 294.297 149.516 295.943 148.498C296.497 148.156 296.95 148.353 296.95 148.935C296.95 149.517 296.331 149.994 295.575 149.994C293.878 149.994 292.669 155.455 293.85 157.785C294.327 158.725 295.311 160.761 296.038 162.31C296.86 164.063 298.385 165.331 300.081 165.67C301.873 166.029 302.621 166.689 302.269 167.604C301.299 170.133 308.458 169.368 310.191 166.758C311.483 164.812 311.891 164.701 313.337 165.9C315.246 167.484 315.307 167.448 317.402 163.467C318.923 160.58 318.986 160.559 319.576 162.744C320.238 165.196 323.95 165.93 323.95 163.608C323.95 162.846 324.57 161.028 325.327 159.568C326.397 157.506 326.837 157.257 327.296 158.453C328.041 160.394 331.324 160.453 332.9 158.554C333.557 157.762 335.045 156.975 336.205 156.804C339.103 156.378 340.079 152.143 339.387 142.994C339.075 138.869 338.913 134.144 339.026 132.494C339.413 126.843 339.144 124.732 337.944 123.991C337.107 123.473 337.039 122.679 337.72 121.371C338.257 120.339 338.59 118.369 338.46 116.994C338.33 115.619 338.665 113.934 339.205 113.249C339.872 112.403 339.672 111.218 338.58 109.551C336.869 106.941 335.725 89.9899 337.259 89.9929C337.704 89.9929 337.721 89.4319 337.296 88.7449C336.871 88.0569 336.66 86.1919 336.828 84.5979C336.995 83.0049 336.54 80.5969 335.818 79.2469C334.68 77.1219 334.735 76.6239 336.227 75.5329C338.345 73.9839 338.487 70.1369 336.455 69.3579C335.156 68.8589 335.185 68.4039 336.683 65.8689C338.099 63.4719 338.185 62.5999 337.169 60.9729C336.489 59.8849 336.312 58.9939 336.775 58.9939C337.238 58.9939 337.659 57.5319 337.711 55.7439C337.839 51.3389 338.987 39.7619 339.435 38.3619C339.634 37.7389 339.327 35.3759 338.752 33.1109C337.985 30.0889 338.017 28.6179 338.874 27.5859C341.014 25.0069 341.892 15.8419 340.354 12.1339C339.17 9.27888 338.593 8.86686 336.512 9.38886C334.532 9.88586 333.814 9.48586 332.757 7.29486C331.732 5.17286 330.197 4.26187 325.651 3.08087C321.549 2.01487 319.355 1.87387 318.151 2.59787C316.952 3.31987 315.723 3.24987 313.989 2.36087C312.31 1.49987 311.141 1.41986 310.31 2.10986C309.122 3.09586 304.966 2.90388 301.95 1.72388C298.511 0.378878 288.911 0.335852 287.812 1.65985ZM683.679 2.25186C681.628 3.21886 679.95 4.62085 679.95 5.36685C679.95 6.11385 679.119 7.79686 678.102 9.10886C676.357 11.3619 674.55 16.2979 674.666 18.4939C674.901 22.9299 680.528 26.9939 686.434 26.9939C689.862 26.9939 691.958 30.6409 692.534 37.6089C692.798 40.8019 693.35 43.6579 693.761 43.9549C694.172 44.2509 694.4 45.6189 694.267 46.9939C693.527 54.6759 693.475 61.1999 694.151 61.6179C695.053 62.1759 694.746 64.9258 693.571 66.8109C692.552 68.4429 693.119 69.0559 695.837 69.2599C698.465 69.4579 698.581 70.6589 696.049 71.4619C695.004 71.7939 693.878 73.1429 693.548 74.4599C692.879 77.1249 694.239 81.5899 695.887 82.1399C696.604 82.3789 696.653 83.5419 696.037 85.6899C695.533 87.4469 694.812 91.7689 694.435 95.2939C693.848 100.772 693.992 101.796 695.429 102.347C696.746 102.853 696.958 103.695 696.408 106.243C696.022 108.031 695.105 109.843 694.37 110.27C693.635 110.697 693.216 111.597 693.44 112.27C693.664 112.943 694.045 115.862 694.286 118.756C694.528 121.65 695.211 124.604 695.805 125.319C696.982 126.738 696.236 133.699 694.813 134.579C694.335 134.874 694.397 135.961 694.95 136.994C695.627 138.259 695.623 139.078 694.936 139.502C694.376 139.849 694.224 140.628 694.598 141.233C695.599 142.853 694.996 153.234 693.818 154.653C692.939 155.712 692.387 164.807 693.037 167.53C693.164 168.06 692.959 169.188 692.582 170.036C691.784 171.828 695.804 179.987 697.985 181.001C698.791 181.376 700.456 182.203 701.686 182.839C704.906 184.502 706.729 184.266 707.418 182.096C708.173 179.715 715.989 178.58 717.25 180.669C717.69 181.398 718.729 181.994 719.559 181.994C720.389 181.994 720.845 181.632 720.571 181.19C720.298 180.748 722.566 178.896 725.612 177.075C730.552 174.12 731.408 173.901 733.548 175.047C736.351 176.547 736.861 176.214 737.546 172.439C737.825 170.899 738.814 169.083 739.743 168.403C741.026 167.465 741.402 165.762 741.303 161.331C741.009 148.167 740.006 138.726 738.683 136.672C737.844 135.37 737.314 132.08 737.365 128.494L737.45 122.494L741.45 122.811C749.184 123.423 755.277 123 756.513 121.764C757.246 121.031 776.812 121.791 778.126 122.603C779.924 123.714 789.95 123.937 789.95 122.866C789.95 121.483 803.746 122.58 805.589 124.11C807.927 126.049 814.784 123.506 816.157 120.19C816.771 118.707 817.176 117.085 817.058 116.584C816.94 116.084 816.582 112.998 816.262 109.727C815.833 105.334 816.031 103.562 817.019 102.951C818.136 102.261 818.137 101.711 817.021 99.6259C816.286 98.2529 815.934 96.4779 816.239 95.6829C816.929 93.8849 815.14 91.9939 812.75 91.9939C811.561 91.9939 810.938 91.2309 810.914 89.7439C810.894 88.5059 809.785 86.1559 808.449 84.5209C806.181 81.7449 805.585 81.5559 799.454 81.6589C794.173 81.7469 792.12 82.2779 788.959 84.3699C786.13 86.2409 783.171 87.1349 778.403 87.5559C774.759 87.8779 770.804 88.3839 769.614 88.6789C768.424 88.9739 764.332 89.3969 760.52 89.6179C756.709 89.8389 753.375 90.2349 753.112 90.4979C752.849 90.7609 752.128 90.5559 751.509 90.0429C750.155 88.9189 742.306 88.5759 739.298 89.5089C737.295 90.1299 737.122 89.7849 736.798 84.5329C736.607 81.4289 736.81 78.5299 737.251 78.0909C738.625 76.7198 739.285 64.1019 738.059 62.6249C736.609 60.8779 737.569 45.2549 739.295 42.5049C740.615 40.4019 740.41 36.9939 738.963 36.9939C738.501 36.9939 739.014 34.6309 740.103 31.7439C742.467 25.4789 743.123 18.4829 741.671 15.0119C740.39 11.9499 740.234 11.4099 740.075 9.47885C739.9 7.35985 734.394 4.23185 729.534 3.49185C727.288 3.14885 723.956 2.10985 722.129 1.18185C718.977 -0.420145 718.74 -0.413123 717.461 1.32288C716.355 2.82488 715.734 2.94886 713.987 2.01386C712.797 1.37686 706.475 0.790876 699.634 0.684876C689.766 0.530876 686.689 0.832862 683.679 2.25186ZM148.027 4.92188C147.244 5.41888 144.402 5.62586 141.71 5.38086C139.019 5.13686 135.234 5.37387 133.298 5.90787C131.188 6.49087 128.844 6.52388 127.442 5.99088C125.761 5.35188 124.768 5.50785 123.905 6.54785C122.639 8.07385 118.399 8.52887 117.594 7.22687C116.932 6.15587 81.1233 6.47785 77.4413 7.58685C72.3893 9.10885 69.7823 11.5409 69.5463 14.9509C69.2703 18.9339 71.4973 22.2729 73.9173 21.5049C75.9813 20.8489 77.0723 22.8119 76.2953 25.7839C75.9563 27.0769 76.7933 28.9059 78.7003 31.0399C81.2403 33.8829 82.5122 34.4189 88.4052 35.1289C92.1342 35.5779 95.7573 36.4189 96.4543 36.9979C97.3453 37.7359 99.8232 37.7039 104.764 36.8879C108.637 36.2479 112.626 36.0789 113.628 36.5129C114.63 36.9469 116.198 37.2109 117.111 37.0999C118.025 36.9889 119.067 37.3749 119.427 37.9569C119.864 38.6639 120.797 38.5139 122.238 37.5049C124.708 35.7749 129.524 35.4959 130.471 37.0279C130.882 37.6929 133.799 37.8189 138.63 37.3809C143.902 36.9039 146.364 37.0459 146.865 37.8559C148.23 40.0659 157.766 37.4019 161.041 33.8969C162.641 32.1839 163.95 30.1929 163.95 29.4719C163.95 28.7509 164.353 28.0109 164.845 27.8269C167.238 26.9359 166.278 11.9939 163.828 11.9939C163.345 11.9939 162.95 11.5789 162.95 11.0709C162.95 10.5629 161.676 8.87586 160.118 7.32086C157.149 4.35586 150.876 3.11188 148.027 4.92188ZM553.649 6.97885C551.559 7.37285 549.331 8.21288 548.699 8.84488C548.067 9.47688 545.89 9.99387 543.861 9.99387C541.659 9.99387 539.22 10.7869 537.811 11.9609C536.512 13.0419 535.888 13.9419 536.423 13.9609C536.957 13.9789 536.446 14.6589 535.287 15.4709C531.649 18.0189 531.489 21.6249 534.829 25.8409C536.45 27.8879 538.89 30.1589 540.25 30.8869C542.153 31.9049 543.012 33.5739 543.979 38.1299C545.15 43.6489 545.081 44.3709 542.966 48.7719C538.886 57.2619 538.678 57.8429 539.224 59.2649C539.955 61.1709 537.018 67.0779 534.224 69.3169C532.973 70.3189 531.95 71.7809 531.95 72.5669C531.95 73.3519 531.553 73.9939 531.067 73.9939C530.582 73.9939 528.974 76.4689 527.494 79.4939C526.014 82.5189 524.386 84.9939 523.876 84.9939C523.367 84.9939 522.95 85.4399 522.95 85.9849C522.95 86.8049 518.683 93.0659 515.043 97.5879C514.559 98.1899 513.428 100.102 512.531 101.838C511.633 103.574 510.491 104.994 509.992 104.994C509.493 104.994 508.79 105.921 508.431 107.055C508.071 108.188 506.714 109.6 505.416 110.191C503.805 110.925 502.96 112.254 502.753 114.38C502.503 116.953 501.966 117.55 499.665 117.814C498.133 117.99 496.337 119.002 495.674 120.064C495.011 121.125 493.927 121.994 493.266 121.994C492.604 121.994 490.582 124.469 488.772 127.494C486.963 130.519 484.81 132.994 483.987 132.994C481.702 132.994 473.133 139.186 472.601 141.221C472.342 142.211 470.618 143.653 468.77 144.425C466.922 145.197 464.526 146.805 463.446 147.998C461.642 149.992 453.384 155.994 452.445 155.994C452.223 155.994 450.974 157.006 449.67 158.244C445.797 161.921 442.993 163.994 441.896 163.994C439.79 163.994 429.95 172.282 429.95 174.055C429.95 175.057 429.5 176.154 428.95 176.494C427.434 177.431 427.754 181.586 429.45 182.994C430.275 183.679 430.95 184.907 430.95 185.723C430.95 186.632 431.532 186.985 432.45 186.632C433.275 186.316 433.95 186.493 433.95 187.025C433.95 187.558 435.525 187.994 437.45 187.994C439.375 187.994 440.95 188.444 440.95 188.994C440.95 189.544 441.625 189.994 442.45 189.994C443.275 189.994 443.95 189.544 443.95 188.994C443.95 188.444 444.513 188.001 445.2 188.008C447.157 188.031 459.969 183.903 464.95 181.645C467.425 180.523 471.205 178.343 473.35 176.8C475.495 175.257 478.195 173.981 479.35 173.966C480.505 173.95 484.14 172.15 487.429 169.966C490.717 167.781 493.796 165.994 494.271 165.994C494.746 165.994 496.277 165.096 497.673 163.997C499.069 162.899 502.003 161.518 504.193 160.928C507.128 160.138 508.451 159.127 509.222 157.084C509.829 155.476 511.494 153.85 513.188 153.21C514.794 152.604 516.342 151.211 516.629 150.114C516.916 149.017 518.455 147.665 520.05 147.109C521.645 146.553 522.95 145.615 522.95 145.025C522.95 144.434 524.075 143.439 525.45 142.812C526.825 142.186 527.95 141.07 527.95 140.333C527.95 139.597 528.418 138.994 528.99 138.994C531.713 138.994 542.95 129.013 542.95 126.595C542.95 125.788 543.8 124.859 544.839 124.529C547.105 123.81 551.95 119.468 551.95 118.157C551.95 117.277 556.26 113.994 557.415 113.994C557.709 113.994 557.95 114.639 557.95 115.427C557.95 116.215 558.85 117.145 559.95 117.494C561.05 117.843 561.95 118.564 561.95 119.097C561.95 120.113 568.332 123.113 575.95 125.678C578.793 126.636 582.479 129.196 585.962 132.633C591.214 137.815 593.768 139.686 598.603 141.889C599.787 142.429 601.035 143.322 601.376 143.873C601.716 144.425 603.974 145.864 606.392 147.072C608.81 148.28 611.007 150.102 611.273 151.122C611.54 152.142 613.108 153.752 614.759 154.699C616.409 155.646 618.686 158.329 619.819 160.661C622.777 166.749 625.384 168.084 635.064 168.466C641.518 168.721 643.863 168.425 645.877 167.103C647.292 166.174 649.35 164.948 650.45 164.379C651.55 163.809 653.963 161.127 655.812 158.419C657.66 155.71 659.583 153.61 660.083 153.751C661.231 154.076 663.336 149.081 663.042 146.734C662.92 145.766 662.178 143.741 661.392 142.234C660.605 140.727 659.96 138.289 659.956 136.815C659.949 133.704 657.617 130.994 654.946 130.994C653.922 130.994 652.791 130.068 652.432 128.937C652.073 127.805 650.61 126.435 649.182 125.892C645.468 124.48 632.95 116.016 632.95 114.917C632.95 114.409 632.224 113.994 631.336 113.994C629.886 113.994 622.196 110.275 620.95 108.971C619.458 107.41 614.779 105.002 612.401 104.571C610.9 104.299 607.909 102.909 605.753 101.482C603.597 100.055 601.072 98.9799 600.141 99.0919C599.211 99.2049 597.325 98.8379 595.95 98.2769C594.575 97.7159 592.942 97.4499 592.32 97.6859C591.699 97.9219 590.257 96.9279 589.115 95.4769C587.005 92.7949 575.85 88.5629 574.291 89.8529C573.865 90.2059 574.119 89.7059 574.855 88.7439C575.592 87.7819 576.724 86.9939 577.372 86.9939C578.575 86.9939 580.95 81.5729 580.95 78.8279C580.95 77.9899 581.85 76.4889 582.95 75.4939C584.05 74.4989 584.95 73.0729 584.95 72.3249C584.95 70.3979 586.936 67.0879 590.7 62.7409C592.488 60.6769 593.95 57.9279 593.95 56.6309C593.95 55.2229 595.017 53.5139 596.602 52.3839C598.061 51.3449 600.013 49.8189 600.94 48.9939C601.867 48.1689 603.456 47.0139 604.471 46.4269C605.486 45.8399 606.796 44.5089 607.383 43.4689C607.97 42.4289 608.984 40.9939 609.636 40.2789C610.961 38.8269 610.328 32.9509 608.458 29.3469C607.817 28.1109 604.853 25.2979 601.871 23.0949C598.89 20.8909 595.926 18.6359 595.286 18.0819C594.645 17.5279 592.845 16.7709 591.286 16.3999C589.726 16.0289 587.775 15.1679 586.95 14.4869C585.496 13.2869 580.233 10.7929 576.732 9.64487C575.787 9.33487 574.759 9.49387 574.447 9.99887C573.802 11.0419 568.843 9.43888 567.877 7.87488C567.084 6.59288 558.545 6.05485 553.649 6.97885ZM318.95 9.99387C318.95 10.5439 318.473 10.9939 317.891 10.9939C317.309 10.9939 317.11 10.5439 317.45 9.99387C317.79 9.44387 318.266 8.99387 318.509 8.99387C318.752 8.99387 318.95 9.44387 318.95 9.99387ZM538.133 24.2109C537.416 24.9279 536.95 24.9869 536.95 24.3609C536.95 23.0259 538.133 21.8429 538.8 22.5109C539.084 22.7949 538.784 23.5599 538.133 24.2109ZM332.95 28.9939C332.95 29.5439 332.5 29.9939 331.95 29.9939C331.4 29.9939 330.95 29.5439 330.95 28.9939C330.95 28.4439 331.4 27.9939 331.95 27.9939C332.5 27.9939 332.95 28.4439 332.95 28.9939ZM315.95 34.4349C315.95 34.6779 315.5 35.1539 314.95 35.4939C314.4 35.8339 313.95 35.6349 313.95 35.0529C313.95 34.4709 314.4 33.9939 314.95 33.9939C315.5 33.9939 315.95 34.1919 315.95 34.4349ZM561.95 36.9939C561.95 37.5439 561.5 37.9939 560.95 37.9939C560.4 37.9939 559.95 37.5439 559.95 36.9939C559.95 36.4439 560.4 35.9939 560.95 35.9939C561.5 35.9939 561.95 36.4439 561.95 36.9939ZM212.95 44.0049C208.829 46.4609 203.868 48.1029 202.185 47.5689C201.15 47.2399 198.761 47.7589 196.876 48.7209C194.118 50.1299 190.819 50.4739 179.95 50.4829C172.525 50.4889 165.964 50.8109 165.369 51.1989C164.257 51.9229 158.104 51.6389 154.311 50.6879C153.134 50.3929 150.292 50.7989 147.994 51.5909C145.697 52.3819 143.285 52.6929 142.634 52.2809C140.85 51.1519 126.631 51.1199 125.211 52.2419C124.484 52.8159 122.417 52.8999 120.211 52.4439C115.842 51.5419 112.591 51.8009 112.117 53.0889C111.683 54.2659 106.629 54.2619 105.4 53.0829C103.952 51.6939 93.7193 51.4169 91.4093 52.7039C89.9253 53.5299 88.0193 53.5529 84.4293 52.7869C80.7683 52.0069 78.2393 52.0549 74.6562 52.9729C70.8033 53.9599 68.2553 53.9569 62.0943 52.9559C56.4773 52.0439 53.8133 51.9969 52.3433 52.7839C50.9163 53.5469 49.1583 53.5599 46.3853 52.8259C44.2213 52.2539 39.5982 51.6299 36.1122 51.4389C32.6252 51.2479 29.2502 50.6639 28.6122 50.1399C27.1962 48.9799 24.6233 48.7399 15.1443 48.8829C8.25126 48.9879 7.67126 49.1769 4.89426 52.2169C3.27526 53.9889 1.95026 56.3739 1.95026 57.5169C1.95026 58.6589 1.39925 60.1449 0.72525 60.8189C-0.24175 61.7859 -0.24175 62.4579 0.72525 64.0049C1.39925 65.0839 1.95026 66.5579 1.95026 67.2809C1.95026 69.1309 4.29926 73.9769 5.20026 73.9859C5.61326 73.9899 5.95026 74.6679 5.95026 75.4929C5.95026 76.3169 7.74225 78.8379 9.93225 81.0949C14.0793 85.3679 21.0162 87.9829 23.3112 86.1399C23.9382 85.6369 26.0253 84.8809 27.9503 84.4599C31.1543 83.7589 33.8473 83.4769 45.4503 82.6279C47.6503 82.4659 50.2383 81.9849 51.2003 81.5569C52.1633 81.1299 53.6842 81.0619 54.5822 81.4059C55.4792 81.7509 59.9813 81.5049 64.5853 80.8609C72.2093 79.7949 73.1332 79.8499 74.9352 81.4799C76.4082 82.8139 77.2493 82.9909 78.2313 82.1759C80.3163 80.4449 87.7423 79.5769 89.3123 80.8789C90.3593 81.7479 90.9823 81.6599 91.9373 80.5099C93.0423 79.1779 93.6763 79.2649 97.3203 81.2469C103.387 84.5479 104.758 87.2849 100.95 88.4939C99.8503 88.8429 98.9503 89.5689 98.9503 90.1069C98.9503 91.6149 89.0102 105.994 87.9662 105.994C87.4592 105.994 86.3273 107.504 85.4523 109.349C84.5763 111.195 82.7053 113.322 81.2943 114.077C79.8832 114.832 77.0472 117.035 74.9922 118.972C62.9632 130.309 59.5623 133.006 57.9423 132.492C57.0023 132.193 55.6713 132.625 54.9863 133.451C54.3003 134.277 52.5492 135.554 51.0952 136.289C45.6372 139.048 43.4553 140.454 39.5273 143.744C38.7063 144.432 37.3103 144.994 36.4253 144.994C35.5413 144.994 33.2203 146.212 31.2693 147.7C29.3183 149.188 26.8592 150.537 25.8062 150.698C23.0272 151.122 14.2783 155.633 8.11926 159.816C2.28226 163.782 2.12826 164.474 5.36826 172.171C7.00926 176.069 7.31727 176.236 16.0213 177.959C20.6253 178.87 22.1003 178.796 24.5213 177.534C26.1323 176.694 28.5432 176.004 29.8792 176C32.9722 175.992 38.0923 174.363 44.4643 171.358C47.2223 170.058 50.2233 168.994 51.1333 168.994C52.0433 168.994 54.0623 168.363 55.6193 167.592C57.1763 166.82 61.3753 164.912 64.9503 163.35C68.5253 161.789 73.6073 159.27 76.2443 157.753C78.8813 156.235 81.9363 154.994 83.0333 154.994C84.1303 154.994 86.8463 153.194 89.0683 150.994C91.2903 148.794 93.7643 146.994 94.5643 146.994C96.2153 146.994 100.549 144.354 103.183 141.744C104.155 140.782 105.625 139.994 106.45 139.994C107.275 139.994 107.95 139.616 107.95 139.155C107.95 138.693 109.075 137.802 110.45 137.176C111.825 136.549 112.95 135.352 112.95 134.515C112.95 133.567 113.874 132.994 115.4 132.994C116.748 132.994 118.21 132.398 118.65 131.669C119.09 130.94 120.238 130.054 121.2 129.7C122.162 129.346 122.95 128.368 122.95 127.525C122.95 126.661 123.821 125.994 124.95 125.994C126.05 125.994 126.95 126.444 126.95 126.994C126.95 127.544 127.85 127.994 128.95 127.994C130.05 127.994 130.95 128.389 130.95 128.871C130.95 130.405 140.324 133.847 143.063 133.318C145.401 132.866 153.516 136.015 154.95 137.93C155.689 138.918 162.539 141.988 164.101 142.033C164.843 142.054 166.357 143.516 167.467 145.283C168.576 147.049 171.261 149.394 173.434 150.494C175.607 151.594 177.995 153.057 178.739 153.744C179.484 154.432 180.623 154.997 181.271 155C181.92 155.004 183.217 156.354 184.153 158C185.09 159.647 186.477 160.994 187.234 160.994C187.991 160.994 190.065 163.019 191.843 165.494C194.577 169.302 195.594 169.994 198.453 169.994C200.311 169.994 202.141 170.494 202.518 171.104C204.363 174.089 217.957 167.545 223.614 160.949C230.472 152.953 231.312 151.146 230.082 147.039C229.459 144.962 228.95 142.387 228.95 141.318C228.95 138.814 223.044 132.744 221.27 133.425C220.091 133.877 213.353 131.397 211.95 129.994C210.526 128.57 206.753 126.998 205.95 127.494C204.992 128.086 201.532 126.419 199.133 124.21C198.367 123.504 196.847 123.209 195.756 123.556C194.391 123.989 193.314 123.532 192.304 122.09C191.403 120.802 189.746 119.994 188.008 119.994C186.134 119.994 184.655 119.192 183.622 117.616C182.522 115.938 180.73 115.038 177.53 114.558C175.037 114.184 172.735 113.454 172.414 112.936C172.094 112.418 170.984 111.994 169.948 111.994C168.911 111.994 167.475 111.168 166.757 110.159C166.038 109.149 163.947 108.027 162.11 107.666C158.963 107.046 153.959 104.873 147.7 101.407C144.63 99.7079 144.203 97.8589 146.45 95.9939C147.275 95.3089 147.95 94.1768 147.95 93.4789C147.95 92.7799 148.625 91.9489 149.45 91.6319C150.275 91.3159 150.95 90.3259 150.95 89.4329C150.95 88.5399 151.85 86.6649 152.95 85.2669C154.05 83.8679 154.95 82.1099 154.95 81.3589C154.95 80.6079 155.823 79.9939 156.891 79.9939C157.959 79.9939 159.115 79.5369 159.46 78.9779C159.806 78.4189 160.62 78.3059 161.269 78.7279C162.395 79.4579 168.546 79.6969 190.117 79.8489C195.434 79.8859 200.047 80.3419 200.368 80.8609C200.689 81.3809 201.82 81.5789 202.88 81.3019C203.94 81.0249 207.083 81.2859 209.864 81.8819C212.645 82.4789 217.621 82.6839 220.921 82.3389C226.012 81.8069 227.532 81.1499 230.936 78.0069C233.682 75.4719 234.95 73.4629 234.95 71.6479C234.95 70.1879 234.523 68.9939 234.001 68.9939C233.479 68.9939 233.109 65.9389 233.178 62.2049C233.286 56.4019 232.962 55.0229 230.947 52.7049C229.65 51.2139 228.065 49.9939 227.425 49.9939C226.784 49.9939 225.445 49.0939 224.45 47.9939C223.455 46.8939 221.633 45.9939 220.402 45.9939C219.171 45.9939 217.905 45.3189 217.588 44.4939C216.95 42.8299 215.228 42.6479 212.95 44.0049ZM550.95 54.9939C550.95 55.5439 550.5 55.9939 549.95 55.9939C549.4 55.9939 548.95 55.5439 548.95 54.9939C548.95 54.4439 549.4 53.9939 549.95 53.9939C550.5 53.9939 550.95 54.4439 550.95 54.9939ZM574.95 70.9939C574.95 71.5439 574.5 71.9939 573.95 71.9939C573.4 71.9939 572.95 71.5439 572.95 70.9939C572.95 70.4439 573.4 69.9939 573.95 69.9939C574.5 69.9939 574.95 70.4439 574.95 70.9939ZM11.9503 75.9939C11.9503 76.5439 11.4733 76.9939 10.8913 76.9939C10.3093 76.9939 10.1103 76.5439 10.4503 75.9939C10.7903 75.4439 11.2662 74.9939 11.5092 74.9939C11.7522 74.9939 11.9503 75.4439 11.9503 75.9939ZM132.95 87.1249C132.95 87.6119 132.079 87.4669 131.015 86.8019C129.95 86.1379 129.315 85.2119 129.604 84.7449C130.193 83.7919 132.95 85.7519 132.95 87.1249ZM137.45 87.9939C137.79 88.5439 137.34 88.9939 136.45 88.9939C135.56 88.9939 135.11 88.5439 135.45 87.9939C135.79 87.4439 136.24 86.9939 136.45 86.9939C136.66 86.9939 137.11 87.4439 137.45 87.9939ZM735.95 96.9939C735.95 97.5439 735.473 97.9939 734.891 97.9939C734.309 97.9939 734.11 97.5439 734.45 96.9939C734.79 96.4439 735.266 95.9939 735.509 95.9939C735.752 95.9939 735.95 96.4439 735.95 96.9939ZM566.95 98.9939C566.95 99.5439 565.937 99.9619 564.7 99.9239C562.553 99.8569 562.542 99.8139 564.45 98.9939C565.55 98.5209 566.562 98.1029 566.7 98.0639C566.838 98.0259 566.95 98.4439 566.95 98.9939ZM291.95 100.435C291.95 100.678 291.5 101.154 290.95 101.494C290.4 101.834 289.95 101.635 289.95 101.053C289.95 100.471 290.4 99.9939 290.95 99.9939C291.5 99.9939 291.95 100.192 291.95 100.435ZM704.95 100.994C704.95 101.544 704.473 101.994 703.891 101.994C703.309 101.994 703.11 101.544 703.45 100.994C703.79 100.444 704.266 99.9939 704.509 99.9939C704.752 99.9939 704.95 100.444 704.95 100.994ZM558.45 111.994C558.79 112.544 558.591 112.994 558.009 112.994C557.427 112.994 556.95 112.544 556.95 111.994C556.95 111.444 557.148 110.994 557.391 110.994C557.634 110.994 558.11 111.444 558.45 111.994ZM569.45 117.994C569.79 118.544 569.591 118.994 569.009 118.994C568.427 118.994 567.95 118.544 567.95 117.994C567.95 117.444 568.148 116.994 568.391 116.994C568.634 116.994 569.11 117.444 569.45 117.994ZM523.612 135.244C523.335 135.932 523.108 135.369 523.108 133.994C523.108 132.619 523.335 132.057 523.612 132.744C523.89 133.432 523.89 134.557 523.612 135.244ZM714.45 142.994C714.79 143.544 714.34 143.994 713.45 143.994C712.56 143.994 712.11 143.544 712.45 142.994C712.79 142.444 713.24 141.994 713.45 141.994C713.66 141.994 714.11 142.444 714.45 142.994ZM317.343 153.576C317.677 154.446 317.95 156.301 317.95 157.698C317.95 159.843 317.716 160.045 316.45 158.994C315.625 158.309 314.95 156.454 314.95 154.872C314.95 151.767 316.357 151.006 317.343 153.576ZM717.95 152.994C717.95 153.544 717.752 153.994 717.509 153.994C717.266 153.994 716.79 153.544 716.45 152.994C716.11 152.444 716.309 151.994 716.891 151.994C717.473 151.994 717.95 152.444 717.95 152.994ZM31.9503 154.994C31.9503 155.544 31.5003 155.994 30.9503 155.994C30.4003 155.994 29.9503 155.544 29.9503 154.994C29.9503 154.444 30.4003 153.994 30.9503 153.994C31.5003 153.994 31.9503 154.444 31.9503 154.994ZM323.45 154.994C323.79 155.544 323.591 155.994 323.009 155.994C322.427 155.994 321.95 155.544 321.95 154.994C321.95 154.444 322.148 153.994 322.391 153.994C322.634 153.994 323.11 154.444 323.45 154.994ZM482.95 161.387C482.95 161.603 482.275 162.039 481.45 162.356C480.625 162.672 479.95 162.495 479.95 161.963C479.95 161.43 480.625 160.994 481.45 160.994C482.275 160.994 482.95 161.171 482.95 161.387ZM313.199 175.973C311.961 176.499 310.292 176.679 309.49 176.371C308.688 176.063 306.326 176.376 304.241 177.067C302.156 177.757 298.242 178.223 295.544 178.101C292.381 177.959 290.349 178.345 289.824 179.187C289.228 180.146 288.536 180.216 287.231 179.451C284.183 177.665 269.967 179.355 268.626 181.663C267.819 183.051 264.079 182.622 262.95 181.011C261.9 179.513 254.064 178.956 252.818 180.29C251.53 181.669 246.271 181.394 244.322 179.847C243.683 179.34 242.163 179.319 240.822 179.799C239.517 180.265 234.175 180.539 228.95 180.407C223.725 180.275 218.936 180.593 218.308 181.113C217.136 182.084 213.961 181.757 208.16 180.069C205.786 179.377 203.772 179.498 200.921 180.504C197.897 181.571 196.239 181.642 193.843 180.807C191.615 180.03 188.803 180.018 184.082 180.765C175.091 182.187 168.897 182.207 166.213 180.823C164.521 179.951 163.03 179.953 160.099 180.831C157.966 181.47 154.248 181.731 151.836 181.412C149.424 181.092 145.568 181.263 143.269 181.791C140.764 182.366 137.355 182.401 134.769 181.878C126.412 180.189 119.95 179.764 119.95 180.903C119.95 182.429 117.688 182.262 114.314 180.487C112.638 179.605 110.31 179.223 108.7 179.566C107.188 179.889 105.949 179.78 105.948 179.323C105.947 178.867 104.484 178.394 102.698 178.271C100.912 178.148 98.4212 177.501 97.1642 176.833C95.3892 175.889 94.1463 175.883 91.5933 176.806C89.7863 177.459 87.4163 177.994 86.3253 177.994C82.7413 177.994 77.6103 184.484 76.3993 190.55C75.5513 194.795 75.5833 196.275 76.5403 197.069C77.2213 197.634 78.7193 200.098 79.8693 202.545C81.0193 204.992 82.6333 206.994 83.4553 206.994C84.2773 206.994 84.9503 207.85 84.9503 208.895C84.9503 211.139 90.9542 214.994 94.4482 214.994C95.7592 214.994 97.1523 215.512 97.5443 216.145C98.0602 216.982 98.5563 216.913 99.3533 215.895C101.186 213.554 109.112 211.314 111.975 212.328C113.701 212.939 115.914 212.743 118.975 211.708C121.636 210.807 124.079 210.53 125.001 211.022C126.911 212.043 137.751 212.125 138.37 211.123C138.983 210.131 164.775 209.902 165.381 210.883C166.049 211.963 169.5 211.608 171.117 210.293C172.575 209.106 180.41 209.197 183.2 210.433C184.162 210.859 185.738 210.861 186.7 210.437C187.662 210.014 188.75 209.628 189.117 209.58C189.483 209.533 190.105 209.172 190.498 208.779C190.891 208.386 192.096 208.537 193.175 209.114C194.254 209.692 196.192 209.899 197.482 209.575C198.772 209.252 200.107 209.44 200.449 209.993C200.841 210.626 201.707 210.659 202.787 210.081C203.852 209.511 205.178 209.542 206.287 210.162C207.268 210.712 208.767 210.894 209.618 210.568C212.78 209.355 219.813 208.963 220.433 209.966C221.326 211.411 225.664 211.249 226.367 209.744C226.833 208.744 227.067 208.744 227.533 209.744C228.249 211.278 230.651 211.391 231.143 209.914C231.601 208.541 260.339 207.885 264.007 209.164C265.671 209.744 267.637 209.683 269.445 208.996C271.4 208.253 272.597 208.241 273.313 208.957C274.639 210.283 281.636 210.312 282.45 208.994C282.79 208.444 284.59 207.994 286.45 207.994C288.31 207.994 290.11 208.444 290.45 208.994C290.79 209.544 292.166 209.994 293.509 209.994C294.852 209.994 295.981 210.557 296.018 211.244C296.684 223.406 296.525 225.003 294.47 226.789C293.251 227.85 290.729 228.635 288.415 228.676C286.234 228.714 283.154 229.09 281.569 229.511C279.361 230.098 278.468 229.884 277.745 228.592C276.726 226.77 275.026 226.987 269.027 229.702C266.355 230.912 264.666 231.037 261.327 230.273C258.414 229.606 256.715 229.629 256 230.344C255.267 231.077 254.588 231.032 253.75 230.194C252.291 228.735 238.339 228.556 237.456 229.985C236.857 230.954 232.22 230.838 217.158 229.477C212.775 229.081 209.385 229.215 208.658 229.812C207.967 230.381 203.81 230.617 198.95 230.364C194.275 230.121 190 229.911 189.45 229.897C188.9 229.883 186.666 230.323 184.485 230.876C181.774 231.563 178.941 231.542 175.53 230.81C171.84 230.019 169.688 230.048 167.271 230.923C164.742 231.837 162.184 231.827 155.981 230.877C149.477 229.882 147.502 229.896 145.526 230.953C143.608 231.98 141.538 232.026 135.776 231.171C129.879 230.296 128.057 230.349 126.38 231.448C124.736 232.525 122.546 232.615 115.946 231.876C111.351 231.362 107.077 230.514 106.447 229.991C104.837 228.655 90.9053 227.479 90.1033 228.612C89.7443 229.119 88.2702 230.052 86.8282 230.685C84.0492 231.903 79.9503 239.094 79.9503 242.751C79.9503 243.92 79.4863 245.163 78.9193 245.513C76.2832 247.143 81.0733 257.994 84.4293 257.994C85.0513 257.994 87.2583 259.55 89.3343 261.452C92.1873 264.065 93.0553 265.592 92.8863 267.702C92.7633 269.238 93.0263 271.347 93.4693 272.389C94.0273 273.701 93.7642 274.656 92.6122 275.499C90.6992 276.898 90.4293 280.073 92.0833 281.727C92.7393 282.383 92.8923 283.624 92.4473 284.677C92.0243 285.676 91.6103 287.844 91.5273 289.494C91.4453 291.144 90.7502 294.519 89.9832 296.994C89.2162 299.469 88.5583 301.794 88.5203 302.161C88.4813 302.527 88.1133 303.165 87.7003 303.577C85.9443 305.333 88.3143 312.971 90.6193 312.986C91.2623 312.99 93.2733 314.569 95.0893 316.494C98.1903 319.782 101.243 320.947 102.296 319.244C102.55 318.831 106.277 318.359 110.576 318.194C114.923 318.027 118.7 317.399 119.083 316.779C119.939 315.394 132.95 314.688 136.105 315.856C137.502 316.373 139.067 316.313 140.039 315.706C141.191 314.987 142.594 315.169 144.951 316.345C147.42 317.576 148.588 317.709 149.595 316.874C151.184 315.555 168.196 314.99 172.286 316.12C174.071 316.613 175.831 316.461 177.036 315.708C178.528 314.777 179.388 314.787 180.936 315.753C183.318 317.241 185.658 317.361 186.117 316.019C186.486 314.937 192.817 314.758 203.45 315.528C213.275 316.239 213.692 316.239 220.95 315.517C224.525 315.162 229.392 315.308 231.766 315.841C234.98 316.563 236.202 316.501 236.549 315.598C236.812 314.912 238.414 314.496 240.232 314.642C242.002 314.784 246.6 314.897 250.45 314.894C262.772 314.884 267.174 315.096 271.534 315.911C273.878 316.349 276.355 316.362 277.037 315.94C277.72 315.518 279.779 315.417 281.614 315.714C283.542 316.027 284.95 315.831 284.95 315.251C284.95 314.648 288.349 314.29 293.45 314.355C298.125 314.416 301.95 314.809 301.95 315.229C301.95 315.65 303.525 315.994 305.45 315.994C307.375 315.994 308.95 315.544 308.95 314.994C308.95 314.444 311.2 313.994 313.95 313.994C317.728 313.994 318.95 314.361 318.95 315.494C318.95 317.193 323.456 317.603 324.45 315.994C325.31 314.602 329.622 314.764 334.974 316.389C337.462 317.144 341.737 317.592 344.474 317.385C348.723 317.063 349.926 316.47 352.709 313.324C356.629 308.893 358.389 303.021 357.44 297.536C357.056 295.313 356.554 291.521 356.325 289.11C355.983 285.514 355.169 284.049 351.8 280.969C349.449 278.82 346.268 276.983 344.365 276.674C341.129 276.149 335.056 277.67 333.852 279.307C333.036 280.417 320.798 282.873 319.179 282.251C318.462 281.976 317.001 282.543 315.932 283.511C314.35 284.942 313.707 285.037 312.482 284.02C311.541 283.24 309.938 283.037 308.213 283.481C306.693 283.871 301.738 284.134 297.2 284.066C292.274 283.991 288.95 284.344 288.95 284.942C288.95 285.572 285.595 285.771 279.923 285.478C273.851 285.164 270.262 285.407 268.961 286.219C267.508 287.126 266.014 287.157 262.965 286.344C260.727 285.746 258.663 285.649 258.368 286.127C257.591 287.385 254.236 287.19 251.936 285.753C250.355 284.766 249.545 284.766 247.964 285.753C245.645 287.201 241.316 287.396 240.508 286.088C239.892 285.091 235.95 285.811 235.95 286.92C235.95 287.301 232.463 287.201 228.2 286.698C223.937 286.194 218.875 285.829 216.95 285.886C215.025 285.943 202.903 286.006 190.011 286.026C177.12 286.046 166.095 286.437 165.511 286.895C164.928 287.353 162.65 287.55 160.45 287.332C158.25 287.114 152.625 286.801 147.95 286.636C133.72 286.133 133.95 286.175 133.95 284.077C133.95 283.023 134.461 281.99 135.086 281.782C135.895 281.512 135.823 280.73 134.836 279.068C133.75 277.238 133.72 276.635 134.7 276.28C136.153 275.754 136.412 271.994 134.995 271.994C134.47 271.994 134.145 269.417 134.272 266.267L134.504 260.54L137.832 260.405C139.663 260.332 141.529 259.675 141.979 258.947C142.582 257.971 143.146 257.911 144.124 258.718C144.9 259.359 148.148 259.66 151.95 259.442C155.525 259.237 161.072 259.529 164.278 260.09C168.489 260.827 170.482 260.797 171.465 259.981C172.319 259.273 174.479 259.101 177.269 259.519C179.714 259.886 181.949 259.805 182.236 259.34C182.835 258.37 196.369 258.514 202.7 259.557C205.037 259.942 206.95 259.861 206.95 259.376C206.95 258.453 212.581 258.292 213.478 259.189C213.762 259.473 229.602 259.567 248.679 259.397C278.507 259.131 284.055 259.315 288.311 260.707C292.206 261.981 294.287 262.115 298.083 261.338C301.334 260.672 303.239 260.683 303.929 261.373C305.149 262.593 327.986 260.565 330.712 258.995C331.668 258.445 333.58 257.597 334.961 257.11C340.448 255.176 342.409 238.51 338.406 227.825C337.119 224.39 336.964 211.481 338.185 209.365C338.461 208.886 339.256 206.694 339.951 204.494C340.647 202.294 342.056 199.689 343.083 198.705C345.634 196.261 345.553 189.316 342.935 185.994C341.265 183.876 340.813 183.723 339.973 184.994C339.104 186.307 338.979 186.295 338.965 184.899C338.944 182.689 335.733 179.994 333.121 179.994C331.927 179.994 330.075 179.119 329.006 178.05C326.739 175.783 316.736 174.468 313.199 175.973ZM635.95 179.731C634.575 179.987 633.225 180.528 632.95 180.934C632.675 181.34 628.864 181.322 624.48 180.893C619.726 180.428 616.053 180.494 615.377 181.055C614.753 181.572 612.196 181.715 609.695 181.373C606.446 180.927 604.202 181.221 601.839 182.4C599.695 183.469 596.396 183.991 592.465 183.883C585.063 183.68 582.251 184.469 578.768 187.728C576.452 189.895 575.688 190.098 573.162 189.218C571.001 188.464 569.483 188.551 567.344 189.549C565.752 190.292 561.099 192.049 557.004 193.454C552.909 194.859 549.309 196.369 549.004 196.808C548.699 197.248 547.02 198.186 545.272 198.892C543.524 199.599 541.85 200.811 541.553 201.586C541.256 202.36 540.372 202.994 539.588 202.994C538.805 202.994 537.905 203.669 537.588 204.494C537.272 205.319 536.045 205.994 534.861 205.994C533.612 205.994 530.872 207.912 528.326 210.569C523.993 215.092 517.95 223.222 517.95 224.529C517.95 224.9 516.691 227.069 515.153 229.349C511.621 234.582 510.726 236.72 510.447 240.588C510.324 242.29 509.775 244.484 509.226 245.464C508.525 246.718 508.639 248.069 509.613 250.021C510.712 252.223 510.753 253.332 509.813 255.395C508.911 257.375 508.905 258.6 509.789 260.541C510.428 261.942 510.95 264.165 510.95 265.482C510.95 266.799 511.349 268.123 511.837 268.424C512.324 268.725 513.02 270.552 513.382 272.483C513.744 274.414 514.47 275.994 514.995 275.994C515.52 275.994 515.95 276.685 515.95 277.529C515.95 280.122 518.921 283.77 521.574 284.436C522.959 284.783 523.931 285.55 523.735 286.139C523.539 286.728 525.054 289.043 527.103 291.285C529.152 293.526 530.743 295.823 530.639 296.388C530.535 296.954 532.138 297.851 534.2 298.382C536.263 298.912 537.952 299.83 537.954 300.42C537.956 301.011 540.093 302.313 542.704 303.314C545.314 304.316 548.125 305.554 548.95 306.067C549.775 306.579 551.575 307.451 552.95 308.003C554.325 308.556 556.693 309.708 558.212 310.564C559.773 311.444 561.859 311.84 563.009 311.475C564.388 311.038 566.162 311.681 568.503 313.467C570.405 314.918 572.342 315.87 572.807 315.582C574.061 314.807 585.95 317.202 585.95 318.23C585.95 318.715 586.321 318.883 586.775 318.602C587.229 318.322 590.214 318.775 593.409 319.609C597.058 320.562 599.569 320.775 600.163 320.181C601.257 319.087 608.296 319.793 608.765 321.044C608.938 321.506 611.24 321.629 613.88 321.316C616.934 320.954 618.932 321.156 619.374 321.871C620.396 323.525 624.024 323.237 626.125 321.335C627.487 320.103 628.536 319.916 630.204 320.606C633.976 322.167 652.012 321.101 655.759 319.096C656.786 318.546 658.593 318.349 659.773 318.658C660.954 318.967 662.714 318.87 663.685 318.443C664.656 318.016 665.675 317.589 665.95 317.494C666.225 317.399 667.243 316.972 668.213 316.546C669.182 316.119 670.532 316.228 671.213 316.788C672.06 317.484 673.711 317.4 676.45 316.52C678.65 315.813 683.375 314.66 686.95 313.958C690.525 313.255 694.658 311.841 696.135 310.815C697.612 309.79 699.187 309.053 699.635 309.177C701.864 309.797 708.397 306.374 712.65 302.356C715.274 299.878 718.659 297.602 720.172 297.3C721.686 296.997 724.531 294.916 726.494 292.676C728.458 290.435 731.331 287.832 732.879 286.891C734.712 285.776 735.915 284.015 736.33 281.837C736.681 279.998 738.539 276.518 740.459 274.103C742.379 271.688 743.953 268.988 743.956 268.103C743.96 267.218 744.571 265.327 745.315 263.901C747.014 260.647 748.447 243.994 747.029 243.994C746.478 243.994 745.549 242.081 744.966 239.744C744.382 237.407 743.464 234.713 742.927 233.758C742.39 232.803 741.95 230.765 741.95 229.23C741.95 226.009 739.466 221.994 737.473 221.994C736.723 221.994 735.814 220.652 735.454 219.012C735.045 217.15 733.795 215.551 732.125 214.753C730.65 214.048 729.308 212.479 729.133 211.255C728.784 208.808 724.105 204.994 721.452 204.994C720.523 204.994 719.553 204.206 719.296 203.244C718.633 200.756 711.456 195.863 709.546 196.596C708.616 196.952 707.727 196.576 707.383 195.679C707.061 194.842 704.47 193.62 701.624 192.964C698.778 192.307 695.934 191.123 695.303 190.332C694.672 189.541 692.647 188.781 690.803 188.644C688.959 188.506 685.971 187.609 684.164 186.649C682.152 185.581 678.068 184.787 673.628 184.599C669.64 184.431 665.269 183.695 663.914 182.963C662.379 182.135 657.793 181.607 651.75 181.564C645.407 181.518 641.617 181.061 640.8 180.244C640.112 179.557 639.302 179.055 639 179.13C638.698 179.205 637.325 179.475 635.95 179.731ZM727.95 180.994C727.95 181.544 728.427 181.994 729.009 181.994C729.591 181.994 729.79 181.544 729.45 180.994C729.11 180.444 728.634 179.994 728.391 179.994C728.148 179.994 727.95 180.444 727.95 180.994ZM313.95 195.994C313.95 196.544 313.5 196.994 312.95 196.994C312.4 196.994 311.95 196.544 311.95 195.994C311.95 195.444 312.4 194.994 312.95 194.994C313.5 194.994 313.95 195.444 313.95 195.994ZM682.95 203.994C682.95 204.544 682.752 204.994 682.509 204.994C682.266 204.994 681.79 204.544 681.45 203.994C681.11 203.444 681.309 202.994 681.891 202.994C682.473 202.994 682.95 203.444 682.95 203.994ZM633.643 213.304C634.263 213.687 637.058 213.472 639.856 212.826C643.705 211.938 645.491 211.933 647.196 212.805C650.726 214.611 657.864 215.882 661.324 215.321C663.683 214.938 664.949 215.335 666.367 216.902C667.408 218.053 668.796 218.994 669.451 218.994C671.789 218.994 676.778 222.083 678.373 224.518C679.266 225.88 680.506 226.994 681.129 226.994C681.752 226.994 683.736 228.119 685.539 229.494C687.342 230.869 689.308 231.994 689.908 231.994C691.27 231.994 693.343 236.866 693.029 239.33C692.9 240.339 693.468 241.914 694.29 242.83C696.34 245.111 695.84 257.885 693.574 261.12C692.681 262.395 691.95 264.464 691.95 265.717C691.95 266.969 691.536 267.994 691.029 267.994C690.523 267.994 688.385 269.697 686.279 271.779C682.117 275.892 673.668 281.994 672.134 281.994C670.425 281.994 665.963 284.673 666.604 285.314C667.628 286.339 662.774 287.735 657.87 287.828C655.351 287.875 651.976 288.444 650.37 289.091C646.162 290.787 638.619 291.909 637.45 291.013C636.9 290.591 633.127 290.654 629.065 291.153C624.213 291.749 620.602 291.704 618.538 291.023C616.811 290.453 611.152 289.816 605.963 289.607C600.22 289.377 596.382 288.791 596.156 288.111C595.951 287.497 594.976 286.994 593.989 286.994C593.002 286.994 591.635 286.319 590.95 285.494C590.265 284.669 588.523 283.984 587.078 283.972C583.577 283.943 576.07 280.47 575.328 278.536C575.002 277.688 574.222 276.988 573.593 276.982C572.606 276.971 570.769 274.707 566.45 268.181C565.9 267.35 564.662 265.843 563.7 264.832C562.738 263.821 561.95 262.149 561.95 261.116C561.95 260.084 561.275 258.679 560.45 257.994C558.712 256.551 558.437 251.429 560.044 250.436C560.646 250.064 560.971 248.014 560.767 245.877C560.564 243.741 560.643 241.994 560.944 241.994C561.245 241.994 562.607 239.869 563.971 237.271C567.057 231.392 571.331 227.229 577.603 223.994C580.269 222.619 583.523 220.706 584.835 219.744C586.147 218.782 588.004 217.994 588.962 217.994C589.921 217.994 591.282 217.299 591.987 216.45C592.884 215.369 594.157 215.1 596.228 215.555C598.876 216.137 600.455 215.727 605.911 213.044C607.755 212.137 632.125 212.366 633.643 213.304ZM323.95 230.377C323.95 230.588 323.049 230.996 321.949 231.284C320.848 231.572 320.199 231.399 320.508 230.901C321.046 230.03 323.95 229.588 323.95 230.377ZM315.95 234.994C315.95 235.544 315.248 235.994 314.391 235.994C313.534 235.994 313.11 235.544 313.45 234.994C313.79 234.444 314.491 233.994 315.009 233.994C315.527 233.994 315.95 234.444 315.95 234.994ZM710.95 239.341C710.95 239.532 710.149 240.611 709.171 241.739C707.682 243.457 707.112 243.586 705.671 242.532C703.382 240.858 703.501 240.22 706.2 239.7C709.525 239.059 710.95 238.952 710.95 239.341ZM164.807 247.104C162.65 248.47 161.591 248.131 162.941 246.505C163.621 245.686 164.624 245.292 165.17 245.63C165.774 246.003 165.631 246.581 164.807 247.104ZM228.95 253.994C228.95 254.544 228.473 254.994 227.891 254.994C227.309 254.994 227.11 254.544 227.45 253.994C227.79 253.444 228.266 252.994 228.509 252.994C228.752 252.994 228.95 253.444 228.95 253.994ZM127.95 273.994C127.95 274.544 127.248 274.994 126.391 274.994C125.534 274.994 125.11 274.544 125.45 273.994C125.79 273.444 126.491 272.994 127.009 272.994C127.527 272.994 127.95 273.444 127.95 273.994ZM581.377 284.889C583.038 285.54 583.083 285.729 581.7 286.26C580.818 286.598 579.558 286.227 578.901 285.435C577.604 283.873 578.358 283.707 581.377 284.889ZM95.9503 288.994C95.9503 289.544 95.4733 289.994 94.8913 289.994C94.3093 289.994 94.1103 289.544 94.4503 288.994C94.7903 288.444 95.2663 287.994 95.5092 287.994C95.7522 287.994 95.9503 288.444 95.9503 288.994ZM581.55 294.594C581.194 295.521 580.678 296.055 580.403 295.78C580.128 295.505 580.194 294.521 580.55 293.594C580.906 292.667 581.422 292.133 581.697 292.408C581.972 292.683 581.906 293.667 581.55 294.594ZM701.45 301.994C701.11 302.544 700.296 302.987 699.641 302.979C698.925 302.969 699.049 302.576 699.95 301.994C701.871 300.752 702.217 300.752 701.45 301.994ZM166.95 302.435C166.95 302.678 166.5 303.154 165.95 303.494C165.4 303.834 164.95 303.635 164.95 303.053C164.95 302.471 165.4 301.994 165.95 301.994C166.5 301.994 166.95 302.192 166.95 302.435ZM100.588 303.69C99.5073 304.77 96.9503 304.922 96.9503 303.906C96.9503 303.404 97.9252 302.994 99.1172 302.994C100.308 302.994 100.97 303.307 100.588 303.69ZM161.95 305.994C161.95 306.544 161.752 306.994 161.509 306.994C161.266 306.994 160.79 306.544 160.45 305.994C160.11 305.444 160.309 304.994 160.891 304.994C161.473 304.994 161.95 305.444 161.95 305.994Z" fill="black"/>
</svg>
